<svg width="139" height="143" viewBox="0 0 139 143" fill="none" xmlns="http://www.w3.org/2000/svg">
<path d="M0.824941 2.23242C0.824941 3.46954 1.82782 4.47242 3.06494 4.47242C4.30206 4.47242 5.30494 3.46954 5.30494 2.23242C5.30494 0.995304 4.30206 -0.00757803 3.06494 -0.00757813C1.82782 -0.00757824 0.824942 0.995304 0.824941 2.23242ZM12.6653 142.232L12.6653 141.812L12.6653 142.232ZM4.47124 140.827L4.17426 141.124L4.47124 140.827ZM12.6653 142.652L138.066 142.652L138.066 141.812L12.6653 141.812L12.6653 142.652ZM3.48534 132.632L3.48494 2.23242L2.64494 2.23242L2.64534 132.632L3.48534 132.632ZM12.6653 141.812C10.3907 141.812 8.72702 141.812 7.45441 141.64C6.19388 141.471 5.38013 141.141 4.76823 140.53L4.17426 141.124C4.96825 141.918 5.98881 142.291 7.34248 142.473C8.68408 142.653 10.4145 142.652 12.6653 142.652L12.6653 141.812ZM2.64534 132.632C2.64534 134.883 2.64446 136.614 2.82483 137.955C3.00683 139.309 3.38027 140.33 4.17426 141.124L4.76823 140.53C4.15633 139.918 3.82682 139.104 3.65734 137.843C3.48624 136.571 3.48534 134.907 3.48534 132.632L2.64534 132.632Z" fill="url(#paint0_linear_6015_9696)"/>
<defs>
<linearGradient id="paint0_linear_6015_9696" x1="3.06494" y1="64.7538" x2="3.06495" y2="29.1555" gradientUnits="userSpaceOnUse">
<stop stop-color="#C49375"/>
<stop offset="1" stop-color="#8F857F"/>
</linearGradient>
</defs>
</svg>
