<svg width="138" height="143" viewBox="0 0 138 143" fill="none" xmlns="http://www.w3.org/2000/svg">
<path d="M137.305 2.23242C137.305 3.46954 136.302 4.47242 135.065 4.47242C133.828 4.47242 132.825 3.46954 132.825 2.23242C132.825 0.995304 133.828 -0.00757803 135.065 -0.00757813C136.302 -0.00757824 137.305 0.995304 137.305 2.23242ZM125.465 142.232L125.465 141.812L125.465 142.232ZM133.659 140.827L133.362 140.53L133.659 140.827ZM125.465 142.652L0.0641755 142.652L0.0641754 141.812L125.465 141.812L125.465 142.652ZM134.645 132.632L134.645 2.23242L135.485 2.23242L135.485 132.632L134.645 132.632ZM125.465 141.812C127.739 141.812 129.403 141.812 130.675 141.64C131.936 141.471 132.75 141.141 133.362 140.53L133.956 141.124C133.162 141.918 132.141 142.291 130.787 142.473C129.446 142.653 127.715 142.652 125.465 142.652L125.465 141.812ZM135.485 132.632C135.485 134.883 135.485 136.614 135.305 137.955C135.123 139.309 134.75 140.33 133.956 141.124L133.362 140.53C133.974 139.918 134.303 139.104 134.473 137.843C134.644 136.571 134.645 134.907 134.645 132.632L135.485 132.632Z" fill="url(#paint0_linear_6015_9698)"/>
<defs>
<linearGradient id="paint0_linear_6015_9698" x1="135.065" y1="64.7538" x2="135.065" y2="29.1555" gradientUnits="userSpaceOnUse">
<stop stop-color="#C49375"/>
<stop offset="1" stop-color="#8F857F"/>
</linearGradient>
</defs>
</svg>
