<svg width="138" height="171" viewBox="0 0 138 171" fill="none" xmlns="http://www.w3.org/2000/svg">
<path d="M50.0777 2.99476C49.8514 3.06617 50.304 2.9188 50.0777 2.99476V2.99476ZM50.0777 2.99476C50.0425 3.00388 50.119 2.97957 50.0777 2.99476V2.99476Z" fill="#877F75"/>
<path d="M69.4183 119.236H69.2715C62.5973 119.236 56.1601 118.232 50.0792 116.396C43.5411 114.109 37.4816 109.548 33.7293 103.839C27.5368 94.7567 21.9191 77.2053 21.6806 59.7244V59.6723C21.9161 42.1945 27.5383 24.6385 33.7293 15.5536C37.4754 9.85045 43.538 5.27195 50.0792 2.99038C56.1616 1.13995 62.7365 0.167175 69.4183 0.167175C76.0925 0.167175 82.6719 1.13995 88.7543 2.99038C95.297 5.26735 101.358 9.84892 105.116 15.5521C111.301 24.6385 116.914 42.196 117.147 59.6707V59.7229C116.914 77.2083 111.301 94.7567 105.116 103.837C101.358 109.548 95.1503 114.129 88.6167 116.403C82.436 118.287 76.0109 119.241 69.5513 119.233L69.4183 119.236ZM113.471 59.703C113.69 46.5352 109.687 30.5534 105.832 22.0562C101.563 12.3269 95.0432 6.42425 85.4715 3.79284C80.1994 2.45244 74.7806 1.78027 69.3418 1.79205C63.7838 1.79205 58.3359 2.4687 53.1816 3.79438C43.6114 6.42732 37.0886 12.33 32.8257 22.0577C28.9695 30.5565 24.9711 46.5383 25.1836 59.7045C24.9696 72.8692 28.9695 88.851 32.8257 97.3543C37.0886 107.077 43.6129 112.98 53.1816 115.607C58.463 116.955 63.8923 117.632 69.3418 117.622C74.9029 117.622 80.3141 116.936 85.4715 115.607C95.0463 112.979 101.566 107.076 105.832 97.3543C109.687 88.8479 113.69 72.8661 113.471 59.703ZM75.9824 32.5972C75.3372 31.5185 75.8662 32.479 75.2026 31.2255L75.9824 32.5972Z" fill="#877F75"/>
<path d="M70.9475 114.508C70.897 112.099 73.2502 110.881 74.7333 109.288C75.1263 108.9 75.2807 108.133 75.0024 107.503C74.822 107.107 74.5712 106.906 74.2318 106.83C73.7165 106.711 73.2838 106.788 72.949 107.073C72.4902 107.499 72.3618 108.064 72.3863 108.661L70.7365 108.759C70.6019 107.842 70.8205 106.956 71.3817 106.266C72.1554 105.446 73.3083 105.219 74.426 105.288C75.3174 105.439 76.3663 105.984 76.7363 106.919C77.2119 107.937 77.0559 109.249 76.2975 110.114C75.3235 111.148 74.0636 111.717 73.2532 112.883L77.4091 112.641C77.4412 113.141 77.4749 113.657 77.5024 114.134L70.9475 114.508ZM56.2107 104.09L56.1832 104.17L53.4784 112.497L51.7551 111.925L53.6083 106.24L53.6389 106.143C52.9493 105.899 52.1175 105.663 51.4463 105.428L51.7964 104.345C52.6664 104.57 53.5655 104.722 54.3331 104.087C54.6068 103.863 54.6542 103.815 54.8055 103.647L56.2107 104.09ZM89.0679 108.71C88.8447 107.888 88.3997 107.231 87.493 106.958L86.9625 106.853C87.5037 106.47 87.9976 105.695 87.8218 104.945C87.6964 104.084 87.0894 103.542 86.305 103.248C85.6261 103.033 84.8325 103.071 84.0772 103.277C83.3157 103.452 82.6078 103.791 82.0941 104.299C81.5528 104.917 81.2485 105.683 81.5482 106.508C81.7271 107.249 82.5283 107.699 83.1751 107.797L82.7683 108.136C82.0788 108.808 81.9901 109.588 82.1751 110.424C82.3662 111.337 83.1108 112.063 84.0038 112.33C84.6842 112.494 85.4915 112.483 86.2912 112.297C87.0878 112.096 87.8065 111.737 88.3218 111.259C88.9961 110.597 89.3156 109.626 89.0679 108.71ZM83.3631 106.332C83.1445 105.979 83.1445 105.365 83.5222 105.002C83.7423 104.778 84.0435 104.612 84.383 104.532C84.7087 104.443 85.0665 104.437 85.3707 104.547C85.8524 104.696 86.1322 105.236 86.123 105.655C86.1185 105.801 86.0844 105.944 86.0229 106.076C85.9614 106.208 85.8737 106.326 85.7652 106.422C85.5313 106.623 85.2504 106.762 84.9487 106.824C84.6353 106.909 84.3218 106.921 84.0405 106.855C83.8975 106.82 83.7635 106.755 83.6468 106.665C83.5302 106.575 83.4336 106.462 83.3631 106.332ZM86.9946 110.343C86.7683 110.597 86.3768 110.803 85.9487 110.893C85.5191 111.013 85.0833 111.019 84.7714 110.881C84.5724 110.814 84.3922 110.7 84.2457 110.549C84.0992 110.398 83.9906 110.214 83.9289 110.013C83.7683 109.447 83.9289 108.834 84.412 108.501C84.6276 108.356 84.9319 108.214 85.253 108.118C85.5863 108.061 85.9258 108.038 86.1689 108.073C86.7652 108.147 87.1903 108.6 87.3095 109.175C87.3539 109.381 87.3484 109.594 87.2936 109.797C87.2388 110 87.1363 110.187 86.9946 110.343ZM66.654 111.831C66.6861 110.99 66.4537 110.218 65.6616 109.7L65.1953 109.433C65.8222 109.229 66.5286 108.638 66.576 107.866C66.7121 107.002 66.2809 106.306 65.6356 105.789C65.0454 105.384 64.284 105.186 63.4965 105.15C62.7182 105.087 61.9369 105.196 61.3008 105.528C60.5944 105.959 60.0807 106.61 60.1143 107.475C60.0776 108.247 60.6999 108.92 61.3008 109.195L60.8039 109.399C59.9431 109.829 59.625 110.557 59.5639 111.397C59.4737 112.348 59.9737 113.252 60.7489 113.767C61.3284 114.148 62.1173 114.375 62.9369 114.433C63.7442 114.484 64.5546 114.338 65.1876 114.04C66.0271 113.618 66.6142 112.776 66.654 111.831ZM61.9094 107.86C61.8192 107.458 62.0057 106.869 62.466 106.64C62.7228 106.487 63.0822 106.421 63.417 106.448C63.761 106.47 64.102 106.571 64.3528 106.757C64.7824 107.042 64.8818 107.647 64.7442 108.036C64.6509 108.351 64.4323 108.527 64.1769 108.669C63.8909 108.784 63.5822 108.832 63.2748 108.808C62.9692 108.797 62.6713 108.709 62.4079 108.554C62.28 108.481 62.1693 108.381 62.0832 108.261C61.9972 108.142 61.9379 108.005 61.9094 107.86ZM64.1785 112.773C63.8941 112.949 63.4583 113.029 63.0195 113C62.5852 112.968 62.1693 112.842 61.9002 112.647C61.7335 112.518 61.5992 112.352 61.5078 112.161C61.4165 111.971 61.3708 111.761 61.3742 111.55C61.3834 110.953 61.7198 110.435 62.2809 110.255C62.5271 110.181 62.8528 110.129 63.1953 110.151C63.5317 110.181 63.865 110.258 64.0852 110.364C64.628 110.617 64.8971 111.177 64.8375 111.77C64.8038 112.145 64.5668 112.529 64.1785 112.773ZM105.701 27.408L97.6259 30.8956L96.9072 29.2139L104.979 25.7156L105.701 27.408ZM75.2899 13.4055L73.2196 4.32679L75.1186 4.52165C75.507 6.76947 75.903 9.31342 76.3571 11.2053C77.1874 9.44231 78.0804 7.02571 78.8923 4.90831L80.7867 5.09397L76.9626 13.5728L75.2899 13.4055ZM40.9526 18.5947L38.9878 22.1206L37.3319 21.197L39.581 17.1524L38.3211 16.4343L35.1729 22.0945L42.8409 26.3969L45.9861 20.7351L44.7186 20.0201L42.4648 24.0708L40.3165 22.8633L42.2828 19.3389L40.9526 18.5947ZM36.3028 56.0727C35.8808 55.1214 34.8655 54.747 33.8151 54.7976C32.9313 54.9112 32.2555 55.5096 31.8824 56.4271C31.7463 55.8901 31.2463 55.2211 30.3993 55.1168C29.5216 55.0094 28.6715 55.2518 28.251 55.9975C27.6745 56.7401 27.9283 60.0236 27.8687 61.9109L36.5949 61.9032L36.5979 61.268C36.5475 57.7758 36.7539 57.3554 36.3028 56.0727ZM31.3442 60.0651H29.1806C29.2464 58.0489 28.9222 56.9626 30.15 56.8337C30.8809 56.7816 31.0751 56.9365 31.2479 57.3861C31.387 57.8357 31.3442 58.3144 31.3442 60.0651ZM35.1377 60.0635L32.6668 60.0651C32.7111 58.1088 32.4038 56.9473 33.5674 56.7233C33.9787 56.6128 34.4711 56.6557 34.7738 56.9611C35.2677 57.449 35.1178 58.2484 35.1377 60.0635ZM105.766 32.3087L107.165 31.942L108.939 38.8389L107.539 39.1995L106.883 36.6509L99.8246 38.4783L99.3797 36.6893L106.428 34.8649L105.766 32.3087ZM61.4277 13.9088C62.4078 13.7569 63.3222 13.3518 63.9445 12.6199C64.4751 12.0154 64.5515 11.44 64.472 10.7956L63.4629 4.48023L61.6754 4.76868L62.6846 11.0718C62.7381 11.549 62.4109 12.0354 61.992 12.2809C61.7505 12.4317 61.4782 12.5256 61.1953 12.5555C60.9192 12.6119 60.6343 12.6098 60.359 12.5494C59.8834 12.4527 59.4308 12.1336 59.3253 11.618L58.3085 5.31798L56.5242 5.60797L57.5379 11.9065C57.6602 12.5478 57.9141 13.0741 58.6143 13.4807C59.4186 13.9763 60.4216 14.073 61.4048 13.9027L61.4277 13.9088ZM109.829 44.8014L100.695 42.9632L100.948 44.7538L102.938 45.119L103.373 48.2736L101.566 49.1666L101.805 50.9618L110.086 46.6809L109.829 44.8014ZM104.753 47.5831L104.453 45.3982L108.248 45.9782H108.254L108.248 45.9844L104.753 47.5831ZM108.508 59.9515L108.681 59.9254L108.869 59.8748L109.023 59.8134C109.601 59.502 109.73 58.7271 109.704 58.1011C109.681 57.4628 109.48 56.8199 108.895 56.5806C108.583 56.4992 108.194 56.4716 107.985 56.7892C106.991 58.2653 107.675 61.3861 105.127 61.9339C104.013 62.1226 103.028 61.6316 102.456 60.7371C101.659 59.327 101.6 57.1022 102.503 55.7198C103.048 55.0033 103.786 54.5629 104.678 54.5537L104.797 56.2461C104.236 56.3151 103.699 56.599 103.448 57.1437C103.081 58.0229 103.162 59.4283 103.818 59.9485C104.051 60.2154 104.603 60.1817 104.884 60.0206C105.912 59.2902 105.698 57.4674 106.217 56.2461C106.375 55.7321 106.861 55.2012 107.332 54.9357C108.242 54.5475 109.39 54.6872 110.121 55.4022C111.288 56.5131 111.34 58.6857 110.792 60.0037C110.494 60.9182 109.496 61.5795 108.483 61.6362L108.37 59.9515H108.508ZM37.7814 46.6364C37.9465 45.6468 37.8471 44.6357 37.3487 43.8363C36.9481 43.1335 36.4251 42.8834 35.7768 42.7515L29.4971 41.768L29.2097 43.5585L35.497 44.562C35.971 44.628 36.3288 45.1144 36.4267 45.5824C36.4924 45.8493 36.4924 46.1378 36.4435 46.4324C36.4081 46.7158 36.3138 46.9887 36.1667 47.2333C35.9251 47.6445 35.4863 47.9836 34.9649 47.9207L28.6852 46.9433L28.4069 48.7308L34.6973 49.722C35.3411 49.8033 35.9206 49.7205 36.5154 49.1804C37.2355 48.5605 37.6331 47.6307 37.7844 46.6503V46.6334H37.7814V46.6364ZM47.5289 8.94825L45.9265 9.9333L47.85 19.0673L49.3989 18.1375L48.9463 16.1643L51.6496 14.5057L53.197 15.8206L54.7306 14.8754L47.5289 8.94825ZM48.6023 14.653L47.6237 10.9398L47.6145 10.9276L47.6237 10.9306L47.6207 10.9184L47.6298 10.9383L50.4692 13.5129L48.6023 14.653ZM90.178 11.8221L86.4839 10.2601L87.2102 8.50175L91.4563 10.2862L92.0266 8.94211L86.0741 6.4488L82.6751 14.5808L88.6337 17.0772L89.1994 15.7316L84.935 13.9395L85.883 11.664L89.6077 13.2352L90.178 11.8221ZM36.679 31.3543C36.6759 30.7513 36.6469 30.245 36.1423 29.7663C35.6637 29.2646 34.8961 29.0359 34.1438 29.0881C32.1821 29.3873 31.9268 31.6382 30.8366 35.2132L39.2523 37.7296L39.7844 35.9605L36.4557 34.9693L36.3181 34.9309C36.5413 34.1177 36.8716 33.0912 37.0368 32.8641C37.6331 31.474 39.8654 32.8365 40.7477 32.7092L41.2599 30.9554C39.7661 31.0367 37.7523 29.6896 36.679 31.3543ZM34.9343 34.509L32.7295 33.8569C33.2142 32.3532 33.4298 30.8357 34.4817 30.9247C34.9114 30.9938 35.2035 31.1119 35.4512 31.4126C35.8579 31.9251 35.3258 33.0559 34.9343 34.509ZM98.0846 13.8075L91.1122 19.1517L92.2223 20.6108L94.9807 18.5011L95.1015 18.4121C95.6213 19.0688 96.2635 19.9449 96.3384 20.2058C97.1213 21.5176 94.6886 22.5165 94.285 23.3113L95.395 24.7643C96.2008 23.4831 98.4852 22.6546 97.7635 20.8011C98.2528 21.1647 98.6824 21.4348 99.3736 21.3074C100.066 21.2108 100.699 20.7228 101.101 20.0753C101.987 18.3154 100.337 16.7765 98.0846 13.8075ZM99.4041 19.2867C99.1044 19.5905 98.8476 19.7531 98.4408 19.7669C97.7803 19.7992 97.1932 18.7128 96.2574 17.5314L98.0678 16.129C99.0096 17.404 100.101 18.4781 99.4041 19.2867ZM92.9165 26.2603C91.0648 22.0332 87.3738 18.923 82.8846 17.6327C78.5163 16.4549 74.0135 15.854 69.4903 15.8451H69.3435C64.7595 15.8451 60.1862 16.488 55.9615 17.6327C51.4662 18.923 47.7812 22.0362 45.925 26.2603C41.8822 34.9432 39.2416 47.4266 39.2416 59.6999C39.2416 71.9777 41.8838 84.4581 45.925 93.1395C47.7827 97.3635 51.4677 100.481 55.9615 101.77C60.3267 102.941 64.825 103.539 69.3435 103.547H69.4903C74.082 103.547 78.6553 102.909 82.8876 101.77C87.3738 100.484 91.0648 97.3666 92.9165 93.1395C96.9516 84.4566 99.609 71.9777 99.609 59.6999C99.606 47.422 96.9439 34.9447 92.9165 26.2603ZM85.146 51.1352C85.2775 51.1352 85.8631 51.0124 85.8799 50.638V42.888C86.9365 42.641 88.0129 42.2758 89.0113 42.0687V46.7408C89.6184 46.6687 89.9303 46.5935 90.6642 46.4784V52.6357L88.756 52.9227L88.152 55.4068H81.3509L80.3433 53.1973C78.6889 53.0424 78.5696 53.0424 76.9183 52.9227C78.4794 50.905 80.0727 48.8935 81.1552 46.6871V43.5386L84.2301 43.1443V50.6119C84.2301 50.8712 84.6093 51.1352 84.9977 51.1352H85.1536V51.1382L85.146 51.1352ZM81.1552 22.65C81.9243 22.4275 82.9656 22.5226 83.6078 23.0965C84.4778 23.7317 84.7286 24.8011 84.5221 25.7939C83.9166 27.9389 81.5207 28.3409 79.5849 28.8533L78.5268 27.4034C78.9122 25.5514 79.1201 23.4156 81.1552 22.65ZM75.2043 31.2285L75.9841 32.6002L74.0407 34.736C73.5162 34.2266 73.4688 34.1852 72.949 33.6344C73.9459 32.5803 74.0407 32.4621 75.2043 31.2285ZM51.1038 28.3133V28.301C51.4493 29.3213 52.0869 30.0471 53.0992 30.5258C52.9845 29.9811 52.512 29.4932 52.3576 28.9255C51.9187 27.81 51.9616 26.2235 52.6833 25.2538C53.1924 24.4912 53.9294 24.1767 54.7383 23.9189C54.4309 24.838 54.3392 25.932 54.7092 26.8587C55.2459 26.4598 55.2673 26.4306 55.6801 26.0317C55.83 25.8859 55.9018 25.8384 56.0303 25.7325C56.7841 27.3389 57.6297 29.5545 57.1373 31.4249L56.833 32.2243C56.7168 30.9078 56.5028 30.2742 55.6129 29.797C55.4967 30.5641 55.9844 31.1165 56.0991 32.1169C56.4584 33.6712 56.1771 35.2148 55.2184 36.1093H52.7505C50.8652 34.0931 50.7337 31.0551 51.1038 28.3133ZM56.7856 38.5351H55.4676L54.8958 43.2655C54.3442 42.7654 53.6918 42.3902 52.9829 42.1654C52.6466 40.1538 52.616 40.0127 52.431 38.5336H51.1558V37.1296C53.3576 37.1235 54.5762 37.1312 56.7872 37.1312L56.7856 38.5351ZM47.217 57.3554L62.3482 57.3462V61.7605L47.217 61.7713V57.3554ZM53.0686 48.4961C53.7001 48.3273 54.3117 48.7186 54.7964 49.0807C54.7245 51.6461 54.7245 51.6139 54.6695 54.3036H53.2673L53.2597 53.8724C53.2001 51.8394 53.1144 50.5045 53.0686 48.4961ZM52.116 79.671C51.8362 79.6679 51.3301 79.6295 51.0472 79.5375C50.3913 79.3718 49.4692 79.0235 48.9142 78.1351L48.8102 77.931L48.7124 77.661L48.5901 77.3787L48.5427 76.9383L48.5472 68.685C48.4754 67.6478 48.0885 67.6294 47.2415 66.9988L47.5396 66.896L50.8744 65.8035C51.3484 66.3191 51.4539 66.9865 51.4983 67.677V74.1228C51.4921 74.5386 51.853 74.7825 52.3331 74.804C52.9004 74.804 53.1358 74.5861 53.1848 74.135C53.2245 71.2397 53.1374 70.4357 53.1848 67.8105C53.2612 66.9267 54.0441 66.046 54.7811 65.8434C55.7061 65.4 56.8208 65.5734 57.648 65.9846C59.1342 66.6873 59.0578 69.5995 59.044 71.9639C58.4584 71.5804 58.3682 71.5297 57.7902 71.3732C57.2795 71.2673 56.7214 71.3625 56.3315 71.6632C55.8529 72.1051 55.8009 72.5301 55.7918 73.3034C55.7535 76.0376 56.0532 77.9218 54.6832 78.9989C53.7979 79.6203 52.9845 79.6725 52.116 79.671ZM56.5486 88.607C55.8269 88.1283 55.6587 87.6619 55.408 87.0021C54.7948 84.1988 58.1725 83.1938 58.9676 80.8647C59.6021 76.9705 59.7825 72.8738 62.4858 69.8327C62.7549 64.1157 64.5944 59.0585 68.6447 54.9005C68.4521 53.607 67.9322 52.4915 67.5438 51.2886C67.0148 51.2733 66.6524 51.1674 66.1738 50.7408C65.8513 50.3087 65.6492 49.7982 65.5882 49.2617C64.1754 51.0216 62.4293 52.9856 60.5088 54.1686C60.1541 54.365 59.7091 53.9522 59.0623 53.3508C56.7046 51.4742 56.3055 47.2502 52.7062 47.4343C51.0732 46.8804 51.1512 44.9533 50.8867 43.5048C51.4921 43.0583 52.4784 43.0798 53.2031 43.3621C55.4493 44.5681 56.9462 47.1075 59.0639 48.8045C59.6311 49.2556 60.1403 49.8555 60.6617 50.0719C62.0577 48.872 63.1693 47.8424 64.1142 45.9859C64.7671 44.9256 65.8527 44.4761 67.0546 44.4561L67.9093 43.4481L67.4628 40.9225C66.5941 39.8227 65.8562 38.625 65.2641 37.3536C65.5745 35.9098 65.761 34.222 67.2197 33.4288C68.1769 32.8304 68.9536 34.1821 69.7334 33.329C70.3007 33.2155 70.8022 33.3674 71.1967 33.6988C71.7899 34.7299 72.4887 35.7595 72.5315 36.9593C72.1722 38.1285 71.608 39.2117 71.0652 40.3042C70.9368 40.5405 70.6065 40.6218 70.3787 40.8013C70.5224 41.2892 70.6355 41.8431 70.9765 42.2344C71.4077 42.3234 71.8282 42.4001 72.3465 42.3081C72.7609 41.0315 74.1324 40.4592 75.2731 40.1093L77.7868 38.4706C77.3724 36.5604 78.5972 34.8818 77.9244 32.9807C76.4917 32.301 76.0758 30.6808 75.7792 29.4042C76.0009 28.6171 76.3938 27.767 76.955 27.0935L77.0422 27.1932C78.4122 28.792 79.6751 30.4368 80.1109 32.4222C80.3525 34.9585 80.6002 37.5592 80.4335 40.2045C79.0758 41.5608 77.4535 42.3618 75.9091 43.3652L74.7685 45.5685C74.6202 47.8363 73.9688 49.877 73.6217 52.0726C74.5988 54.7271 75.7471 58.2607 74.903 60.7187C74.241 62.1779 72.8771 62.9819 71.8511 63.7889L69.2823 65.8557C71.8603 68.7034 71.241 71.9348 71.3435 76.0729C71.3251 77.0703 73.1049 77.9003 72.1584 79.0388C71.3588 80.3154 70.1187 81.3449 70.319 83.0189C69.5392 84.3569 67.6524 84.6392 66.7549 84.6269C66.7112 84.6299 66.6674 84.6237 66.6263 84.6088C66.5851 84.5939 66.5476 84.5705 66.5159 84.5402C66.4843 84.5099 66.4593 84.4733 66.4425 84.4328C66.4257 84.3922 66.4175 84.3486 66.4185 84.3047C66.6035 83.6188 67.1341 83.0788 67.4139 82.4297C68.3313 81.0197 67.9123 79.0741 69.053 77.7622C68.1142 74.692 66.6952 71.8427 66.3023 68.5669L66.2794 68.3567C65.5118 69.8619 65.9384 71.3425 66.342 72.5316C63.8054 75.7277 61.0623 78.8117 61.0623 83.0205C59.9798 84.9522 58.4462 86.709 57.6358 88.7451C57.3651 89.0857 56.859 88.7865 56.5486 88.607ZM73.3404 78.4757C74.8342 78.5432 76.322 79.7784 76.9045 81.167C77.4978 82.5801 77.2577 84.4336 76.351 85.6135C75.2043 86.999 73.6355 87.7355 71.7884 87.4041C70.6325 87.1494 69.4918 86.4374 68.8252 85.3465C69.7716 85.0274 71.1233 84.4796 71.3894 83.5544C71.3236 82.1152 72.3037 80.9644 73.0407 79.8137C73.4061 79.3181 73.4505 79.0173 73.3404 78.4757ZM74.7563 77.2022L74.7685 64.1694C76.6232 64.1388 77.221 64.194 79.1415 64.1602V77.2022H74.7563ZM65.3145 97.0751C64.1127 97.9481 62.1173 98.1522 60.7917 97.4065C60.0272 97.0367 59.3406 96.2926 58.9201 95.5668C58.6082 94.8687 58.4798 94.6263 58.4507 93.9082C61.6128 93.9082 63.7473 93.9082 67.105 93.9113C67.0867 95.1173 66.4124 96.2941 65.3145 97.0751ZM71.241 97.405H68.2655V92.0378L63.6204 92.0424V89.8836H68.2854L69.7426 88.1482C70.4536 88.9799 70.5193 89.0412 71.2563 89.8836H75.9122V92.0424L71.2395 92.0378L71.241 97.405ZM80.5727 95.5668C80.1491 96.2941 79.4702 97.0352 78.7057 97.405C77.3739 98.1522 75.3709 97.9466 74.1813 97.072C73.0942 96.2895 72.4169 95.1142 72.3954 93.9082L81.0513 93.9067C81.0115 94.6263 80.8983 94.8702 80.5727 95.5668ZM83.9197 68.685C85.9074 70.6659 87.7086 72.4626 89.4945 74.221C90.1642 74.9421 90.6826 75.9732 90.259 76.923C90.0404 77.3909 89.7652 77.9049 89.4517 78.3177C89.4517 77.3909 89.0572 76.8539 88.5297 76.3353C86.0955 73.9371 81.8846 70.5984 81.5528 69.1822C81.1782 68.2324 81.2974 67.077 81.2684 65.9784C81.9855 65.4276 82.5558 64.9443 83.3998 64.2784C83.3448 65.9646 83.1108 67.6862 83.9197 68.685ZM88.0542 64.2692C88.9823 65.0348 89.4471 65.4583 90.3263 66.2976C90.8278 68.5178 89.5098 69.7714 88.5129 71.3333L84.5894 67.565V65.38C85.0604 64.863 85.2194 64.6773 85.7668 64.1326L86.8784 65.4736V69.1776C88.4334 68.4211 88.0542 66.1948 88.0542 64.2692ZM87.123 84.1344C86.6612 84.6515 86.4961 84.8417 85.9441 85.3818L84.8356 84.0469V80.3277C83.2806 81.0948 83.6567 83.3104 83.6567 85.2361C82.8738 84.5936 82.1163 83.9206 81.3861 83.2184C80.8876 81.0028 82.2041 79.7354 83.2057 78.1765L87.1169 81.9433L87.123 84.1344ZM90.4379 83.5375C89.7361 84.0991 89.1505 84.5748 88.3111 85.233C88.3676 83.5452 88.6031 81.8298 87.7973 80.8263C85.9438 78.9772 84.0855 77.1329 82.2225 75.2935C81.5589 74.5708 81.0222 73.5382 81.461 72.5854C81.669 72.1297 81.9503 71.608 82.2607 71.1983C82.2607 72.125 82.6674 72.6513 83.1812 73.1776C85.6215 75.5727 89.8279 78.9176 90.1642 80.3323C90.5358 81.2897 90.4196 82.4251 90.4379 83.5375ZM91.9547 61.7943L76.8235 61.7697V57.3523L91.9547 57.3431V61.7943ZM0.571045 126.909V147.079H137.458V126.909H0.571045ZM19.4178 143.485H13.2344V130.39C15.8567 130.4 17.3827 130.39 19.5554 130.39C21.563 130.39 23.1532 131.484 23.3046 133.487C23.4468 134.865 23.0125 136.077 21.349 136.496C22.8168 136.905 23.7572 138.243 23.7663 139.983C23.7786 141.464 22.6272 143.485 19.4178 143.485ZM43.8149 139.956C43.7828 140.934 43.5366 141.758 42.6131 142.521C41.5397 143.442 40.0795 143.822 38.6116 143.811H38.575C37.1056 143.822 35.6545 143.442 34.5781 142.521C33.65 141.758 33.4038 140.931 33.361 139.956V130.42H36.0582L36.0612 139.956C36.0903 140.733 36.679 141.315 37.367 141.551C37.737 141.711 38.1682 141.792 38.5964 141.769C39.026 141.8 39.4572 141.718 39.8242 141.551C40.503 141.315 41.1116 140.655 41.1254 139.956L41.1284 130.42H43.8241L43.8149 139.956ZM62.9476 143.495C62.3268 143.481 63.2442 138.285 61.0042 138.15C59.7474 138.068 58.9568 138.117 57.7138 138.137L57.726 143.495H54.9997V130.375C57.5012 130.4 58.94 130.413 61.1801 130.413C63.203 130.51 65.2151 131.32 65.3528 133.52C65.5041 136.067 64.0684 136.655 62.7213 137.094C65.8375 137.764 64.6876 141.413 65.5179 143.488H62.9491L62.9476 143.495ZM84.3723 135.348L84.3815 137.614H78.3907L78.3846 141.281H85.25L85.2561 143.46H75.6431V130.343H85.2561L85.25 132.509L78.3969 132.519V135.349L84.3723 135.348ZM103.285 143.495L102.341 140.624H97.6136L96.6764 143.495H94.0006L98.5693 130.369H101.383L105.954 143.495H103.285ZM124.813 139.936C124.771 140.908 124.526 141.731 123.596 142.498C122.523 143.423 121.07 143.794 119.603 143.785H119.561C118.095 143.794 116.638 143.423 115.564 142.498C114.642 141.731 114.389 140.908 114.35 139.936V130.397H117.057V139.936C117.078 140.714 117.682 141.278 118.35 141.544C118.723 141.7 119.15 141.768 119.592 141.76C120.014 141.777 120.436 141.704 120.827 141.544C121.495 141.281 122.107 140.634 122.116 139.936L122.125 130.397H124.829L124.813 139.936ZM61.1739 132.542C60.4094 132.485 59.0119 132.574 57.729 132.542V135.936C60.2397 135.939 60.6204 135.929 61.3956 135.857C62.1724 135.781 62.6678 135.07 62.6678 134.105C62.6678 133.14 61.9583 132.623 61.1739 132.542ZM98.3445 138.452H101.607L99.9745 132.968L98.3445 138.452ZM19.2328 135.575C20.1823 135.575 20.7603 134.927 20.7603 133.873C20.7603 132.856 19.9958 132.419 19.1349 132.419H15.9637L15.9653 135.576L19.2328 135.575ZM19.4178 137.691C18.1258 137.606 16.9301 137.613 15.9637 137.613V137.637L15.953 141.313C18.6456 141.272 18.7374 141.313 19.6594 141.197C20.5967 141.092 21.037 140.262 21.037 139.448C21.0386 138.63 20.4315 137.751 19.4178 137.691Z" fill="#877F75"/>
<path d="M54.5477 155.851C54.0447 155.862 53.5138 155.873 53.0043 155.867V159.244C55.4982 159.254 55.8866 159.238 56.6648 159.154C57.437 159.076 57.9507 158.382 57.9416 157.412C57.9309 156.45 57.2214 155.919 56.4523 155.867C55.9912 155.819 55.3008 155.834 54.5477 155.851Z" fill="#B6003B"/>
<path d="M102.51 156.281L102.516 156.271H102.51V156.281Z" fill="#B6003B"/>
<path d="M102.51 156.281L102.503 156.291V156.303L100.866 161.798H104.124L102.51 156.303V156.281Z" fill="#B6003B"/>
<path fill-rule="evenodd" clip-rule="evenodd" d="M0.571045 170.445V150.264H137.458V170.445H0.571045ZM114.707 162.724C114.707 164.627 116.239 167.12 120.208 167.12C123.43 167.12 125.693 165.634 125.69 162.709C125.69 160.155 123.053 159.48 120.826 158.91C119.2 158.494 117.792 158.134 117.792 157.138C117.792 156.226 118.531 155.384 120.448 155.384C122.217 155.384 122.862 156.374 122.862 157.437L125.379 157.347C125.379 156.509 124.954 153.248 120.153 153.248C116.7 153.248 115.106 155.264 115.106 157.617C115.106 160.083 117.551 160.665 119.715 161.181C121.431 161.589 122.969 161.956 122.969 163.186C122.969 164.724 121.41 165.029 120.005 165.029C118.184 165.029 117.211 163.676 117.211 162.631L114.707 162.724ZM56.2688 161.449C57.7393 161.538 57.8517 163.809 57.9285 165.359C57.9686 166.171 57.999 166.784 58.2091 166.784L60.7794 166.783C60.5125 166.119 60.4496 165.297 60.3857 164.462C60.2497 162.686 60.1095 160.855 57.9905 160.391C59.3299 159.961 60.7733 159.384 60.6173 156.833C60.4812 154.628 58.4675 153.811 56.4553 153.71C55.0108 153.71 53.902 153.703 52.6329 153.694C51.9246 153.689 51.1663 153.684 50.2719 153.679V166.783H52.9936L52.9783 161.443C53.3477 161.44 53.6766 161.433 53.9895 161.426C54.7306 161.409 55.3817 161.394 56.2688 161.449ZM40.1651 158.701V160.971L34.1759 160.965V164.635H41.0366L41.0489 166.824H31.442V153.696H41.0519L41.0366 155.866L34.182 155.872V158.701H40.1651ZM19.2098 166.821H16.7037L12.2757 153.709L15.1334 153.702C15.293 154.28 15.4546 154.871 15.6177 155.468L15.618 155.469C16.3789 158.251 17.174 161.158 17.9545 163.419C18.7726 161.072 19.6009 158.028 20.3828 155.154L20.3831 155.153C20.5158 154.665 20.6472 154.182 20.7771 153.709L23.5996 153.702L19.2098 166.821ZM73.1309 166.821H70.3801V153.702H73.1309V166.821ZM91.2636 155.935H91.2666V155.938H91.2636V155.935ZM91.2636 155.935H87.3691V166.821H84.6398L84.6276 155.935L80.7194 155.941V153.799H91.2636V155.935ZM105.802 166.821L104.866 163.961H100.14L99.1916 166.821H96.5127L101.095 153.709H103.904L108.477 166.821H105.802Z" fill="#B6003B"/>
</svg>
