<svg width="60" height="117" viewBox="0 0 60 117" fill="none" xmlns="http://www.w3.org/2000/svg">
<rect x="43.7" y="49.3162" width="15.6" height="15.6" rx="7.8" fill="#FEFAF8"/>
<rect x="43.7" y="49.3162" width="15.6" height="15.6" rx="7.8" stroke="#E0B370" stroke-width="0.6"/>
<path d="M49.2449 60.6162V59.781C49.9937 59.1218 50.6113 58.5522 51.0977 58.0722C51.5905 57.5858 51.9553 57.1506 52.1921 56.7666C52.4353 56.3826 52.5569 56.0146 52.5569 55.6626C52.5569 55.2786 52.4321 54.997 52.1825 54.8178C51.9329 54.6386 51.6161 54.549 51.2321 54.549C51.0593 54.549 50.8673 54.5714 50.6561 54.6162C50.4449 54.6546 50.2273 54.709 50.0033 54.7794L50.1281 54.597L49.9745 55.7394H49.3793L49.2833 54.165C49.6609 54.0498 50.0289 53.9602 50.3873 53.8962C50.7457 53.8322 51.0785 53.8002 51.3857 53.8002C51.8145 53.8002 52.1921 53.861 52.5185 53.9826C52.8513 54.0978 53.1137 54.2834 53.3057 54.5394C53.4977 54.7954 53.5937 55.125 53.5937 55.5282C53.5937 55.9762 53.4689 56.421 53.2193 56.8626C52.9761 57.2978 52.6145 57.765 52.1345 58.2642C51.6609 58.757 51.0785 59.3202 50.3873 59.9538L50.3777 59.829H53.7473V60.6162H49.2449Z" fill="#E0B370"/>
<rect x="6.7" y="100.316" width="15.6" height="15.6" rx="7.8" fill="#FEFAF8"/>
<rect x="6.7" y="100.316" width="15.6" height="15.6" rx="7.8" stroke="#E0B370" stroke-width="0.6"/>
<path d="M14.1723 111.703C13.8075 111.703 13.4491 111.658 13.0971 111.568C12.7451 111.479 12.4091 111.344 12.0891 111.165L12.3675 110.464C12.6491 110.618 12.9403 110.736 13.2411 110.819C13.5483 110.896 13.8459 110.935 14.1339 110.935C14.4347 110.935 14.7003 110.89 14.9307 110.8C15.1611 110.711 15.3435 110.573 15.4779 110.387C15.6123 110.195 15.6795 109.955 15.6795 109.667C15.6795 109.431 15.6251 109.223 15.5163 109.043C15.4139 108.864 15.2475 108.723 15.0171 108.621C14.7867 108.512 14.4859 108.458 14.1147 108.458H13.3083V107.747H14.1051C14.5851 107.747 14.9435 107.651 15.1803 107.459C15.4235 107.261 15.5451 106.983 15.5451 106.624C15.5451 106.227 15.4203 105.946 15.1707 105.779C14.9211 105.607 14.6011 105.52 14.2107 105.52C13.9995 105.52 13.7851 105.543 13.5675 105.587C13.3499 105.626 13.1355 105.68 12.9243 105.751L13.0683 105.607L12.9435 106.691H12.3579L12.2811 105.184C12.6395 105.063 13.0011 104.97 13.3659 104.906C13.7371 104.835 14.0891 104.8 14.4219 104.8C14.8251 104.8 15.1867 104.855 15.5067 104.963C15.8331 105.072 16.0859 105.251 16.2651 105.501C16.4507 105.744 16.5435 106.067 16.5435 106.471C16.5435 106.944 16.4027 107.319 16.1211 107.594C15.8459 107.863 15.4395 108.032 14.9019 108.103L14.8635 108.026C15.4779 108.071 15.9323 108.237 16.2267 108.525C16.5275 108.813 16.6779 109.203 16.6779 109.696C16.6779 110.035 16.6139 110.333 16.4859 110.589C16.3579 110.839 16.1755 111.047 15.9387 111.213C15.7083 111.379 15.4395 111.504 15.1323 111.587C14.8315 111.664 14.5115 111.703 14.1723 111.703Z" fill="#E0B370"/>
<rect x="0.7" y="0.316211" width="15.6" height="15.6" rx="7.8" fill="#FEFAF8"/>
<rect x="0.7" y="0.316211" width="15.6" height="15.6" rx="7.8" stroke="#E0B370" stroke-width="0.6"/>
<path d="M9.32061 11.1266L9.11901 10.8674L10.3958 11.0978V11.6162H7.02621V11.0978L8.54301 10.8866L8.34141 11.1266V5.71221L8.60061 5.73141L6.95901 6.67221L6.64221 6.06741L8.51421 4.86741H9.32061V11.1266Z" fill="#E0B370"/>
</svg>
