<svg width="1182" height="136" viewBox="0 0 1182 136" fill="none" xmlns="http://www.w3.org/2000/svg">
<g clip-path="url(#clip0_6015_9302)">
<path d="M483.3 3.5037V2.10474H475.3H457.4H449.4V3.40377C453 4.00333 457.3 6.6014 457.4 12.6969V122.516C457.3 128.511 453 131.209 449.4 131.809V133.108H457.4H462H470.7H475.3H483.3V131.809C479.7 131.209 475.4 128.611 475.3 122.516V12.6969C475.4 6.70133 479.7 4.00333 483.3 3.5037Z" fill="#F4EAE3"/>
<path d="M900.6 3.5037V2.10474H892.6H874.7H866.7V3.40377C870.3 4.00333 874.6 6.6014 874.7 12.6969V122.516C874.6 128.511 870.3 131.209 866.7 131.809V133.108H874.7H879.3H888H892.6H900.6V131.809C897 131.209 892.7 128.611 892.6 122.516V12.6969C892.7 6.70133 897 4.00333 900.6 3.5037Z" fill="#F4EAE3"/>
<path d="M1133.7 23.0892C1147.8 10.3986 1166.9 4.70281 1171 3.5037V2.10474H1132.6V3.40377C1142.4 5.00259 1141.7 11.6976 1132.6 22.9893H1133.7V23.0892Z" fill="#F4EAE3"/>
<path d="M1087.4 122.516V12.6969C1087.5 6.70133 1091.8 4.00333 1095.4 3.40377V2.10474H1087.4H1069.5H1061.5V3.40377C1065.1 4.00333 1069.4 6.6014 1069.5 12.6969V122.516C1069.4 128.511 1065.1 131.209 1061.5 131.809V133.108H1069.5H1074.1H1082.8H1087.4H1095.4V131.809C1091.7 131.209 1087.4 128.511 1087.4 122.516Z" fill="#F4EAE3"/>
<path d="M1163.2 121.117L1099.4 59.6621L1091.3 68.0559L1149.3 124.714L1149.1 124.514C1151.3 128.911 1146.8 131.609 1144.7 131.709V133.008H1158.1H1158.9H1169.5H1176H1182.1V131.709C1176.6 131.109 1169 126.513 1163.2 121.117Z" fill="#F4EAE3"/>
<path d="M419.7 122.516C414.9 133.807 404.9 130.01 400.7 112.223C400.5 111.424 397 99.4327 396.8 98.6333C390.7 77.2491 376.8 70.5541 363.6 70.5541C363.6 70.5541 350.5 70.5541 343.6 70.5541H320.1V5.10257H359.4C364.7 5.10257 388.4 5.10256 388.4 37.8783C388.4 63.959 372.3 67.7561 372.3 67.7561C372.3 67.7561 372.8 68.2558 376.3 68.2558C379.8 68.2558 405.7 63.959 405.7 37.6784C405.7 5.10257 378.8 2.20471 359.4 2.20471H320.1H316.2H306.8H302.2H294.2V3.50375C297.8 4.10331 302.1 6.70138 302.2 12.7969V122.616C302.1 128.611 297.8 131.309 294.2 131.909V133.208H302.2H306.8H315.5H320.1H328.1V131.909C324.5 131.309 320.2 128.711 320.1 122.616V73.4519H346.6C354.9 73.4519 373.1 71.953 377.5 91.6385C377.7 92.7376 382.5 111.124 382.7 112.123C385.7 124.314 392.4 135.206 405.5 135.206C419.7 135.206 421.1 122.516 421.1 122.516H419.7Z" fill="#F4EAE3"/>
<path d="M1045.6 110.425C1045.6 110.425 1045.5 110.325 1045.4 110.325C1045.3 110.325 1045.2 110.325 1045.1 110.425H1044.4C1043.9 113.722 1039.9 127.312 1027.9 129.81H1025.6H1023.9H973V12.697C973.1 6.70145 977.4 4.00345 981 3.40389V2.10485H980.1C980.1 1.905 979.9 1.80508 979.7 1.80508H978L952.4 1.60522H950.6H949.4H947.6C947.4 1.60522 947.3 1.70515 947.2 1.905C947.2 2.00493 947.2 2.10485 947.3 2.10485H947.2V3.40389C949.4 3.70367 951.9 4.90278 953.5 7.10115C954.1 8.30027 954.4 9.69923 954.6 11.298C954.8 13.1966 954.9 14.9953 954.9 16.694C954.9 45.073 954.9 78.0486 954.9 110.225C954.9 113.822 954.7 117.519 954.5 121.117C954.1 126.513 952.8 130.21 947.6 131.609C947.5 131.609 947.4 131.609 947.3 131.709V133.008H955.3H959.9H961.9H973H1045.6V132.208V130.21V110.724V110.525V110.425Z" fill="#F4EAE3"/>
<path d="M29.5 110.624H28.4C19.3 126.812 4 130.61 0 131.809V133.108H38.4V131.809C25.2 130.01 27.8 119.518 29.5 110.624Z" fill="#F4EAE3"/>
<path d="M139.3 120.217L80.3001 2.10474H79.0001L71.5001 20.7909L99.5001 76.5496H45.0001L43.6001 79.4474H101L123.7 124.614C125.7 128.911 121.3 131.509 119.2 131.609V132.908H127.8H133.3H141.1H145.7H153.7V131.609C148.2 131.109 142.8 126.013 139.3 120.217Z" fill="#F4EAE3"/>
<path d="M260.7 2.10474H259.5H246V3.5037C250.5 4.00333 253.2 8.79978 250.7 12.8967L215.6 70.654L180.8 13.4963C178.4 9.49926 182.1 4.10326 186.6 3.60363V2.10474H174H173.1H156.6H156.1H144V3.5037C150.6 4.10326 159.9 8.99963 163.6 14.5955L201.3 76.6495V122.715C201.2 128.611 196.9 131.309 193.3 131.809V133.108H201.3H205.9H214.6H219.2H227.2V131.809C223.6 131.209 219.2 128.511 219.2 122.416V70.8538L253.6 14.3956C257.4 8.8997 266.5 4.10326 273.1 3.5037V2.10474H260.7Z" fill="#F4EAE3"/>
<path d="M633 96.1352C630.7 75.5505 618.5 70.0545 600 63.0597C580.5 55.7651 541.6 52.2677 542.3 29.2847C543 7.00124 563.1 3.40391 572.8 3.40391C587.8 3.40391 602.4 10.4987 612.5 18.4927C619.4 23.9887 621.6 31.9827 621.6 31.9827H622.9V3.40391H621.5C621.5 3.40391 619.9 19.3921 612 14.3958C600.6 7.20109 586.2 0.406128 572.5 0.406128C549.7 0.406128 528.5 7.10117 524.9 29.1848C522.1 46.7718 534 59.8621 551.6 65.6578C562.3 69.2551 569.1 70.754 579.5 73.7518C606.5 82.1456 612.9 90.0397 615.1 103.03C616.9 113.522 609.3 132.208 581.5 132.208C575.4 131.909 558.8 130.71 535.5 115.121C528.6 109.625 526.4 101.631 526.4 101.631H525.1V130.21H526.5C526.5 130.21 528.1 114.222 536 119.218C538.4 120.717 541 122.216 543.7 123.615C552.3 128.311 566.6 134.807 581.7 135.306C619.7 135.306 635.2 116.02 633 96.1352Z" fill="#F4EAE3"/>
<path d="M829.7 96.1352C827.4 75.5505 815.2 70.0545 796.7 63.0597C777.2 55.7651 738.3 52.2677 739 29.2847C739.7 6.90132 759.8 3.40391 769.5 3.40391C784.5 3.40391 799.1 10.4987 809.2 18.4927C816.1 23.9887 818.3 31.9827 818.3 31.9827H819.6V3.40391H818.2C818.2 3.40391 816.6 19.3921 808.7 14.3958C797.3 7.20109 782.9 0.406128 769.2 0.406128C746.4 0.406128 725.2 7.10117 721.6 29.1848C718.8 46.7718 730.7 59.8621 748.3 65.6578C759 69.2551 765.8 70.754 776.2 73.7518C803.2 82.1456 809.6 90.0397 811.8 103.03C813.6 113.522 806 132.208 778.2 132.208C772.1 131.909 755.5 130.71 732.2 115.121C725.3 109.625 723.1 101.631 723.1 101.631H721.8V130.21H723.2C723.2 130.21 724.8 114.222 732.7 119.218C735.1 120.717 737.7 122.216 740.4 123.615C749 128.311 763.3 134.807 778.4 135.306C816.4 135.306 831.9 116.02 829.7 96.1352Z" fill="#F4EAE3"/>
</g>
<defs>
<clipPath id="clip0_6015_9302">
<rect width="1182" height="135" fill="white" transform="translate(0 0.306152)"/>
</clipPath>
</defs>
</svg>
