<svg width="100" height="101" viewBox="0 0 100 101" fill="none" xmlns="http://www.w3.org/2000/svg">
<path d="M49.2203 69.6899C47.2489 69.299 45.8563 71.115 45.2305 72.1329C45.2305 74.3316 47.9267 76.5303 50.3938 76.5303C53.4448 76.5303 56.7958 73.9528 54.7357 71.4C52.2714 68.3463 52.154 70.2715 49.2203 69.6899Z" fill="#E0B370" fill-opacity="0.3"/>
<path d="M28.5869 57.7342C29.8003 63.9973 32.3553 71.0816 34.1997 74.693C36.5052 79.2072 47.5473 84.8193 50.2168 84.8193C52.8863 84.8193 63.8984 78.1192 65.7482 74.693C67.5705 71.3176 69.9994 62.9875 71.2969 56.2701M28.5869 57.7342C31.0137 51.2679 30.0738 46.1433 34.8061 40.775C38.592 36.4803 47.0616 34.9186 50.8232 34.6746M28.5869 57.7342C17.6661 33.9429 31.6516 22.679 36.2626 19.9119C43.7855 15.3975 52.8863 15.8852 56.7689 19.0576C59.9241 17.5933 64.2243 19.9119 67.0833 22.2299C70.8965 25.3215 77.9284 36.317 72.6576 52.6094M28.5869 57.7342C27.1007 56.555 24.4922 55.1716 24.4922 57.7342C24.4921 61.5218 28.4085 69.2024 31.6848 68.7144M72.0579 51.3896C71.9054 52.8214 71.6409 54.4891 71.2969 56.2701M56.7689 22.2299L54.0997 36.2604C64.7775 37.6267 71.2442 47.7697 72.6576 52.6094M71.2969 56.2701C71.8204 55.0222 72.2719 53.8016 72.6576 52.6094M71.2969 56.2701C72.4001 55.5382 74.6307 54.5135 74.7278 56.2701C74.8491 58.4658 72.9076 65.7862 69.9954 66.6403M55.0698 56.731C56.4045 57.4225 59.8021 57.9297 62.7143 56.2701M45.1198 56.731C43.785 57.4225 40.3874 57.9297 37.4752 56.2701M54.0997 49.6812C56.5668 48.7458 60.5787 47.1923 62.7143 47.4851C64.8499 47.7779 65.5051 48.4612 67.2039 49.6812M46.8185 49.6812C44.3515 48.7458 40.3396 47.1923 38.204 47.4851C36.0684 47.7779 35.4131 48.4612 33.7144 49.6812M48.76 64.5661C49.4069 64.9321 51.0407 65.4446 52.4002 64.5661" stroke="#E0B370" stroke-width="2.00641" stroke-linecap="round"/>
<path d="M44.7812 72.3818C45.66 72.8428 46.2286 72.8428 47.8828 72.8428C49.537 72.8428 49.6404 73.3037 50.3124 73.3037C50.9844 73.3037 51.6047 72.8428 52.4835 72.8428C53.3622 72.8428 54.8613 72.6452 55.8435 72.3818" stroke="#E0B370" stroke-width="2.00641" stroke-linecap="round"/>
<path d="M73.7088 95.2355L73.7088 95.2355C71.3875 92.7762 68.6343 88.4891 68.6343 82.0478V76.7807C68.6343 75.9627 69.1677 75.2533 69.9301 75.0073C73.1696 73.9623 76.2151 72.557 79.194 70.7314C79.7942 70.3636 80.5499 70.3633 81.1502 70.7299M73.7088 95.2355L81.1502 70.7299M73.7088 95.2355C75.0217 96.6264 76.3829 97.6343 77.505 98.2991C78.0657 98.6312 78.5757 98.8831 78.9997 99.0554C79.3742 99.2075 79.8114 99.353 80.1726 99.353C80.5339 99.353 80.9711 99.2075 81.3456 99.0554C81.7695 98.8831 82.2795 98.6312 82.8402 98.299C83.9623 97.6342 85.3234 96.6264 86.6362 95.2355C88.9577 92.7762 91.7107 88.4891 91.7107 82.0478M73.7088 95.2355L91.7107 82.0478M81.1502 70.7299C84.0676 72.5111 87.24 73.9745 90.418 75.007C91.1784 75.2541 91.7107 75.9625 91.7107 76.7798V82.0478M81.1502 70.7299L91.7107 82.0478" fill="white" stroke="white" stroke-width="2.00474" stroke-linecap="round" stroke-linejoin="round"/>
<path d="M90.7083 82.0478C90.7083 88.1751 88.0976 92.2271 85.9073 94.5475C83.4213 97.1812 80.7634 98.3506 80.1726 98.3506C79.5819 98.3506 76.9238 97.1812 74.4378 94.5475C72.2476 92.2271 69.6367 88.1751 69.6367 82.0478V76.7807C69.6367 76.4062 69.8814 76.0763 70.2379 75.9613C73.5549 74.8913 76.6728 73.4522 79.7178 71.5861C79.9968 71.415 80.3486 71.4148 80.6279 71.5854C83.6107 73.4066 86.8543 74.9031 90.1082 75.9604C90.4641 76.076 90.7083 76.4056 90.7083 76.7798V82.0478Z" fill="white" stroke="#E0B370" stroke-width="1.33649" stroke-linecap="round" stroke-linejoin="round"/>
<path opacity="0.23" d="M77.5074 86.2215C76.9996 85.5272 76.6067 84.4223 76.7131 83.4259C76.8195 82.4296 77.5446 83.2949 78.0577 82.8671C78.5709 82.4393 78.6079 80.9713 79.4335 80.6796C80.2591 80.3878 81.3597 80.5337 81.7725 80.8253C82.1853 81.1169 82.7356 81.117 83.2859 82.4296C83.8362 83.7421 81.2221 82.7213 79.9838 83.1588C78.7456 83.5963 78.0739 86.7401 77.5074 86.2215Z" fill="#E0B370"/>
<path d="M77.5035 80.5666C77.5511 80.7729 77.5631 80.9257 77.5035 80.9763C76.6599 81.6945 74.3992 79.2692 74.1214 79.8871C73.8437 80.505 76.9036 81.5442 76.6067 82.0684C76.3099 82.5926 76.3697 83.8992 75.9587 83.9961C75.0895 84.201 72.695 83.9961 72.8339 84.4627C72.9728 84.9294 74.5235 84.4627 75.2642 84.4627C76.0049 84.4627 76.3058 84.6048 76.6067 85.4567C76.7714 85.9227 76.9216 86.2804 77.0605 86.5467M77.5035 80.5666C77.3623 79.9546 76.8069 78.7653 77.0725 78.5904C77.6702 78.197 77.4774 79.3487 77.7865 79.8871M77.5035 80.5666C77.6226 81.0829 77.9589 82.0684 77.6702 82.4387M77.7865 79.8871C77.8958 80.0774 78.0135 80.2055 78.1391 80.1914C78.6205 80.1377 78.7783 80.12 79.6253 79.8871C80.0769 79.8702 81.0327 79.4001 81.2425 77.655C81.3001 77.1761 81.3581 76.0093 81.767 76.1332C82.1375 76.2454 81.1988 79.8871 81.767 80.1914C82.3353 80.4958 83.1657 80.9524 83.428 81.4597C83.6903 81.967 84.1711 82.2713 84.6519 82.0684C85.1327 81.8655 86.3764 80.7525 86.5751 81.4597C86.7238 81.9888 84.7393 82.2206 84.3459 82.9308C83.8535 83.8197 82.408 83.8582 80.1199 83.9961C78.8219 84.0743 78.3314 87.4024 77.781 87.208C77.2307 87.0135 76.3502 89.4831 76.1301 89.2498C75.927 89.0345 76.6977 87.4696 77.0605 86.5467M77.7865 79.8871C77.9613 80.1914 78.2654 80.5666 78.4382 80.5666M77.2307 85.8954C77.2668 85.9719 77.1894 86.2187 77.0605 86.5467" stroke="#E0B370" stroke-width="0.617723" stroke-linecap="round"/>
<ellipse cx="80.5269" cy="85.2035" rx="0.550323" ry="0.583366" stroke="#E0B370" stroke-width="0.617723" stroke-linecap="round"/>
<ellipse cx="83.0191" cy="84.9027" rx="0.550323" ry="0.583366" stroke="#E0B370" stroke-width="0.617723" stroke-linecap="round"/>
<ellipse cx="83.2908" cy="87.822" rx="0.275161" ry="0.291683" stroke="#E0B370" stroke-width="0.617723" stroke-linecap="round"/>
<ellipse cx="84.3845" cy="86.0798" rx="0.275161" ry="0.291683" stroke="#E0B370" stroke-width="0.617723" stroke-linecap="round"/>
<ellipse cx="81.7643" cy="86.8037" rx="0.412742" ry="0.437525" stroke="#E0B370" stroke-width="0.617723" stroke-linecap="round"/>
<ellipse cx="86.5798" cy="86.6579" rx="0.275161" ry="0.291683" stroke="#E0B370" stroke-width="0.617723" stroke-linecap="round"/>
<ellipse cx="80.8064" cy="89.2751" rx="0.275161" ry="0.291683" stroke="#E0B370" stroke-width="0.617723" stroke-linecap="round"/>
<ellipse cx="83.8259" cy="90.447" rx="0.275161" ry="0.291683" stroke="#E0B370" stroke-width="0.617723" stroke-linecap="round"/>
<ellipse cx="79.569" cy="87.3897" rx="0.412742" ry="0.437525" stroke="#E0B370" stroke-width="0.617723" stroke-linecap="round"/>
<ellipse cx="77.7908" cy="88.9899" rx="0.275161" ry="0.291683" stroke="#E0B370" stroke-width="0.617723" stroke-linecap="round"/>
<rect x="1.09531" y="2.27012" width="26.5594" height="26.5594" rx="13.2797" stroke="#E0B370" stroke-width="1.56562"/>
<path d="M15.2303 14.0798C16.1063 14.2238 16.8503 14.6138 17.4623 15.2498C18.0743 15.8858 18.3803 16.7138 18.3803 17.7338C18.3803 18.5258 18.1823 19.2278 17.7863 19.8398C17.3903 20.4518 16.8623 20.9258 16.2023 21.2618C15.5423 21.5858 14.8223 21.7478 14.0423 21.7478C13.0823 21.7478 12.2423 21.5138 11.5223 21.0458C10.8143 20.5658 10.2623 19.9418 9.86628 19.1738L11.1983 18.2378C11.5583 18.7898 11.9603 19.2218 12.4043 19.5338C12.8483 19.8458 13.3763 20.0018 13.9883 20.0018C14.6963 20.0018 15.2783 19.7978 15.7343 19.3898C16.1903 18.9698 16.4183 18.4238 16.4183 17.7518C16.4183 17.0798 16.1783 16.5638 15.6983 16.2038C15.2303 15.8438 14.5583 15.6638 13.6823 15.6638H12.3683V15.1418L15.1403 11.4158H10.7123V9.6698H18.1103V10.1918L15.2303 14.0798Z" fill="#E0B370"/>
<ellipse cx="36.9634" cy="63.3511" rx="0.822798" ry="0.832556" fill="#E0B370"/>
<ellipse cx="41.8619" cy="66.6597" rx="0.822798" ry="0.832556" fill="#E0B370"/>
<ellipse cx="34.0467" cy="64.5994" rx="1.2342" ry="1.24883" fill="#E0B370"/>
<ellipse cx="37.7447" cy="69.1831" rx="0.822798" ry="0.832556" fill="#E0B370"/>
<ellipse cx="0.822798" cy="0.832556" rx="0.822798" ry="0.832556" transform="matrix(-1 0 0 1 64.082 62.5186)" fill="#E0B370"/>
<ellipse cx="0.822798" cy="0.832556" rx="0.822798" ry="0.832556" transform="matrix(-1 0 0 1 60.7891 65.8506)" fill="#E0B370"/>
<ellipse cx="0.822798" cy="0.832556" rx="0.822798" ry="0.832556" transform="matrix(-1 0 0 1 40.2266 43.3662)" fill="#E0B370"/>
<ellipse cx="0.822798" cy="0.832556" rx="0.822798" ry="0.832556" transform="matrix(-1 0 0 1 42.6875 40.0381)" fill="#E0B370"/>
<ellipse cx="0.822798" cy="0.832556" rx="0.822798" ry="0.832556" transform="matrix(-1 0 0 1 56.6797 40.0381)" fill="#E0B370"/>
<ellipse cx="0.822798" cy="0.832556" rx="0.822798" ry="0.832556" transform="matrix(-1 0 0 1 65.7266 66.6787)" fill="#E0B370"/>
</svg>
