<svg width="80" height="81" viewBox="0 0 80 81" fill="none" xmlns="http://www.w3.org/2000/svg">
<path d="M60.3646 12.6392C58.384 12.2709 54.1665 13.7719 53.1414 22.7221C51.8601 33.9099 55.7046 48.8413 48.2314 63.4728C42.2529 75.178 31.0647 74.8371 26.2179 73.2035C25.6094 72.7198 24.6364 71.4115 25.6131 70.0482C26.639 68.6161 25.1476 67.2315 24.3045 66.6753C23.6187 66.566 22.0905 66.0061 21.4642 64.6406C20.6814 62.9337 20.7506 61.8371 18.7751 60.995C16.7997 60.1529 12.1974 59.5779 15.3844 55.6291M15.3844 55.6291C18.5714 51.6803 16.1812 47.3176 11.7591 48.5909C8.22146 49.6095 7.62485 50.5956 7.76875 50.9613L15.3844 55.6291Z" stroke="#E0B370" stroke-width="1.5" stroke-linecap="round" stroke-linejoin="round"/>
<path d="M65.5077 17.9624C62.3915 18.0461 55.5168 19.5298 52.9481 24.7954" stroke="#E0B370" stroke-width="1.5" stroke-linecap="round" stroke-linejoin="round"/>
<path d="M56.8911 12.7741C50.6405 16.5249 48.7797 26.6838 47.9594 44.1472C46.9341 65.9765 36.0068 68.5885 24.3393 66.677" stroke="#E0B370" stroke-width="1.5" stroke-linecap="round" stroke-linejoin="round"/>
<path d="M19.5413 61.379C25.3051 63.9322 35.0751 66.7003 42.5663 56.2437" stroke="#E0B370" stroke-width="1.5" stroke-linecap="round" stroke-linejoin="round"/>
<path d="M65.4534 17.9277C64.0158 14.8683 59.7543 9.70469 54.2091 13.5257C51.8544 12.7462 45.5642 11.9744 39.24 15.1228C36.669 15.812 31.0869 19.2245 29.3265 27.3614C27.1259 37.5324 26.7332 42.4802 24.1361 45.7055C22.0585 48.2858 18.2703 49.8184 16.9091 50.252" stroke="#E0B370" stroke-width="1.5" stroke-linecap="round" stroke-linejoin="round"/>
<path d="M65.5077 17.9624C62.3915 18.0461 55.5168 19.5298 52.9481 24.7954" stroke="#E0B370" stroke-width="1.5" stroke-linecap="round" stroke-linejoin="round"/>
<path d="M15.8912 49.3737C19.6594 52.6462 26.6538 59.4477 33.341 58.4541C39.6391 57.5184 45.0226 51.9053 45.7782 42.2929C46.3456 35.0739 45.4135 21.6038 53.7873 13.7727" stroke="#E0B370" stroke-width="1.5" stroke-linecap="round" stroke-linejoin="round"/>
<path d="M39.1126 15.1645C36.8772 16.2851 33.8926 20.0532 32.6171 26.0733C31.0226 33.5984 31.5113 44.1737 25.65 48.3557" stroke="#E0B370" stroke-width="1.5" stroke-linecap="round" stroke-linejoin="round"/>
<path d="M41.4999 71.2397C36.4668 73.9393 32.7639 71.7459 30.8054 70.4002C30.6909 71.5598 28.6978 73.6 26.302 73.2447" stroke="#E0B370" stroke-width="1.5" stroke-linecap="round" stroke-linejoin="round"/>
<mask id="path-10-inside-1_6150_813" fill="white">
<path d="M65.837 29.1092L64.5962 28.7708C64.145 28.658 63.6938 28.2068 63.581 27.7556L63.2426 26.5147C63.1298 26.1763 62.9042 25.9507 62.5657 25.9507C62.2273 25.9507 62.0017 26.1763 61.8889 26.5147L61.5505 27.7556C61.4377 28.2068 60.9865 28.658 60.5353 28.7708L59.2945 29.1092C58.9561 29.222 58.7305 29.4477 58.7305 29.7861C58.7305 30.1245 58.9561 30.3501 59.2945 30.4629L60.5353 30.8013C60.9865 30.9141 61.4377 31.3654 61.5505 31.8166L61.8889 33.0574C62.0017 33.3959 62.2273 33.6215 62.5657 33.6215C62.9042 33.6215 63.1298 33.3959 63.2426 33.0574L63.581 31.8166C63.6938 31.3654 64.145 30.9141 64.5962 30.8013L65.837 30.4629C66.1754 30.3501 66.401 30.1245 66.401 29.7861C66.401 29.4477 66.1754 29.222 65.837 29.1092ZM62.5657 31.2526C62.3401 30.5757 61.7761 30.1245 61.2121 29.8989C61.8889 29.6733 62.3401 29.1092 62.5657 28.5452C62.7914 29.222 63.3554 29.6733 63.9194 29.8989C63.3554 30.1245 62.7914 30.5757 62.5657 31.2526Z"/>
</mask>
<path d="M65.837 29.1092L64.5962 28.7708C64.145 28.658 63.6938 28.2068 63.581 27.7556L63.2426 26.5147C63.1298 26.1763 62.9042 25.9507 62.5657 25.9507C62.2273 25.9507 62.0017 26.1763 61.8889 26.5147L61.5505 27.7556C61.4377 28.2068 60.9865 28.658 60.5353 28.7708L59.2945 29.1092C58.9561 29.222 58.7305 29.4477 58.7305 29.7861C58.7305 30.1245 58.9561 30.3501 59.2945 30.4629L60.5353 30.8013C60.9865 30.9141 61.4377 31.3654 61.5505 31.8166L61.8889 33.0574C62.0017 33.3959 62.2273 33.6215 62.5657 33.6215C62.9042 33.6215 63.1298 33.3959 63.2426 33.0574L63.581 31.8166C63.6938 31.3654 64.145 30.9141 64.5962 30.8013L65.837 30.4629C66.1754 30.3501 66.401 30.1245 66.401 29.7861C66.401 29.4477 66.1754 29.222 65.837 29.1092ZM62.5657 31.2526C62.3401 30.5757 61.7761 30.1245 61.2121 29.8989C61.8889 29.6733 62.3401 29.1092 62.5657 28.5452C62.7914 29.222 63.3554 29.6733 63.9194 29.8989C63.3554 30.1245 62.7914 30.5757 62.5657 31.2526Z" fill="#E0B370"/>
<path d="M65.837 29.1092L64.5962 28.7708C64.145 28.658 63.6938 28.2068 63.581 27.7556L63.2426 26.5147C63.1298 26.1763 62.9042 25.9507 62.5657 25.9507C62.2273 25.9507 62.0017 26.1763 61.8889 26.5147L61.5505 27.7556C61.4377 28.2068 60.9865 28.658 60.5353 28.7708L59.2945 29.1092C58.9561 29.222 58.7305 29.4477 58.7305 29.7861C58.7305 30.1245 58.9561 30.3501 59.2945 30.4629L60.5353 30.8013C60.9865 30.9141 61.4377 31.3654 61.5505 31.8166L61.8889 33.0574C62.0017 33.3959 62.2273 33.6215 62.5657 33.6215C62.9042 33.6215 63.1298 33.3959 63.2426 33.0574L63.581 31.8166C63.6938 31.3654 64.145 30.9141 64.5962 30.8013L65.837 30.4629C66.1754 30.3501 66.401 30.1245 66.401 29.7861C66.401 29.4477 66.1754 29.222 65.837 29.1092ZM62.5657 31.2526C62.3401 30.5757 61.7761 30.1245 61.2121 29.8989C61.8889 29.6733 62.3401 29.1092 62.5657 28.5452C62.7914 29.222 63.3554 29.6733 63.9194 29.8989C63.3554 30.1245 62.7914 30.5757 62.5657 31.2526Z" fill="#E0B370"/>
<path d="M65.837 29.1092L66.3114 27.6862L66.2719 27.6731L66.2317 27.6621L65.837 29.1092ZM64.5962 28.7708L64.9909 27.3237L64.9755 27.3195L64.96 27.3156L64.5962 28.7708ZM63.581 27.7556L65.0362 27.3918L65.0323 27.3763L65.0281 27.3609L63.581 27.7556ZM63.2426 26.5147L64.6897 26.12L64.6788 26.0799L64.6656 26.0404L63.2426 26.5147ZM61.8889 26.5147L60.4659 26.0404L60.4527 26.0799L60.4418 26.12L61.8889 26.5147ZM61.5505 27.7556L60.1034 27.3609L60.0992 27.3763L60.0953 27.3918L61.5505 27.7556ZM60.5353 28.7708L60.1715 27.3156L60.156 27.3195L60.1406 27.3237L60.5353 28.7708ZM59.2945 29.1092L58.8998 27.6621L58.8596 27.6731L58.8201 27.6862L59.2945 29.1092ZM59.2945 30.4629L58.8201 31.8859L58.8596 31.8991L58.8998 31.9101L59.2945 30.4629ZM60.5353 30.8013L60.1406 32.2485L60.156 32.2527L60.1715 32.2565L60.5353 30.8013ZM61.5505 31.8166L60.0953 32.1804L60.0992 32.1959L60.1034 32.2112L61.5505 31.8166ZM61.8889 33.0574L60.4418 33.4521L60.4527 33.4923L60.4659 33.5318L61.8889 33.0574ZM63.2426 33.0574L64.6656 33.5318L64.6788 33.4923L64.6897 33.4521L63.2426 33.0574ZM63.581 31.8166L65.0281 32.2112L65.0323 32.1959L65.0362 32.1804L63.581 31.8166ZM64.5962 30.8013L64.96 32.2565L64.9755 32.2527L64.9909 32.2485L64.5962 30.8013ZM65.837 30.4629L66.2317 31.9101L66.2719 31.8991L66.3114 31.8859L65.837 30.4629ZM62.5657 31.2526L61.1427 31.7269L62.5657 35.9961L63.9888 31.7269L62.5657 31.2526ZM61.2121 29.8989L60.7378 28.4759L56.8531 29.7708L60.655 31.2916L61.2121 29.8989ZM62.5657 28.5452L63.9888 28.0709L62.6938 24.186L61.173 27.9881L62.5657 28.5452ZM63.9194 29.8989L64.4765 31.2916L67.9581 29.8989L64.4765 28.5062L63.9194 29.8989ZM66.2317 27.6621L64.9909 27.3237L64.2015 30.218L65.4423 30.5564L66.2317 27.6621ZM64.96 27.3156C65.0152 27.3294 65.0409 27.3455 65.041 27.3456C65.0423 27.3463 65.0341 27.3412 65.0224 27.3295C65.0106 27.3177 65.0055 27.3095 65.0063 27.3108C65.0063 27.3109 65.0224 27.3366 65.0362 27.3918L62.1258 28.1194C62.2624 28.6659 62.5719 29.1217 62.901 29.4507C63.2301 29.7798 63.6858 30.0894 64.2324 30.226L64.96 27.3156ZM65.0281 27.3609L64.6897 26.12L61.7954 26.9094L62.1338 28.1502L65.0281 27.3609ZM64.6656 26.0404C64.4268 25.3241 63.7668 24.4507 62.5657 24.4507V27.4507C62.373 27.4507 62.1627 27.3761 62.001 27.2346C61.8618 27.1128 61.8229 26.9991 61.8195 26.989L64.6656 26.0404ZM62.5657 24.4507C61.3647 24.4507 60.7046 25.3241 60.4659 26.0404L63.312 26.989C63.3086 26.9991 63.2697 27.1128 63.1305 27.2346C62.9688 27.3761 62.7585 27.4507 62.5657 27.4507V24.4507ZM60.4418 26.12L60.1034 27.3609L62.9977 28.1502L63.3361 26.9094L60.4418 26.12ZM60.0953 27.3918C60.1091 27.3366 60.1252 27.3109 60.1252 27.3108C60.126 27.3095 60.1209 27.3177 60.1091 27.3295C60.0974 27.3412 60.0892 27.3463 60.0905 27.3456C60.0906 27.3455 60.1163 27.3294 60.1715 27.3156L60.8991 30.226C61.4457 30.0894 61.9014 29.7798 62.2305 29.4508C62.5596 29.1217 62.8691 28.6659 63.0057 28.1194L60.0953 27.3918ZM60.1406 27.3237L58.8998 27.6621L59.6892 30.5564L60.93 30.218L60.1406 27.3237ZM58.8201 27.6862C58.1038 27.925 57.2305 28.5851 57.2305 29.7861H60.2305C60.2305 29.9788 60.1559 30.1891 60.0145 30.3508C59.8926 30.49 59.7789 30.5289 59.7688 30.5323L58.8201 27.6862ZM57.2305 29.7861C57.2305 30.9871 58.1038 31.6472 58.8201 31.8859L59.7688 29.0399C59.7789 29.0433 59.8926 29.0821 60.0145 29.2214C60.1559 29.383 60.2305 29.5933 60.2305 29.7861H57.2305ZM58.8998 31.9101L60.1406 32.2485L60.93 29.3542L59.6892 29.0158L58.8998 31.9101ZM60.1715 32.2565C60.1163 32.2427 60.0906 32.2267 60.0905 32.2266C60.0892 32.2258 60.0974 32.2309 60.1091 32.2427C60.1209 32.2545 60.126 32.2626 60.1252 32.2614C60.1252 32.2613 60.1091 32.2355 60.0953 32.1804L63.0057 31.4528C62.8691 30.9062 62.5596 30.4505 62.2305 30.1214C61.9014 29.7923 61.4457 29.4828 60.8991 29.3461L60.1715 32.2565ZM60.1034 32.2112L60.4418 33.4521L63.3361 32.6628L62.9977 31.4219L60.1034 32.2112ZM60.4659 33.5318C60.7046 34.248 61.3647 35.1215 62.5657 35.1215V32.1215C62.7585 32.1215 62.9688 32.1961 63.1305 32.3375C63.2697 32.4593 63.3086 32.573 63.312 32.5831L60.4659 33.5318ZM62.5657 35.1215C63.7668 35.1215 64.4268 34.248 64.6656 33.5318L61.8195 32.5831C61.8229 32.573 61.8618 32.4593 62.001 32.3375C62.1627 32.196 62.373 32.1215 62.5657 32.1215V35.1215ZM64.6897 33.4521L65.0281 32.2112L62.1338 31.4219L61.7954 32.6628L64.6897 33.4521ZM65.0362 32.1804C65.0224 32.2355 65.0063 32.2613 65.0063 32.2614C65.0055 32.2626 65.0106 32.2545 65.0224 32.2427C65.0341 32.2309 65.0423 32.2258 65.041 32.2266C65.0409 32.2266 65.0152 32.2427 64.96 32.2565L64.2324 29.3461C63.6858 29.4828 63.2301 29.7923 62.901 30.1214C62.5719 30.4505 62.2624 30.9062 62.1258 31.4528L65.0362 32.1804ZM64.9909 32.2485L66.2317 31.9101L65.4423 29.0158L64.2015 29.3542L64.9909 32.2485ZM66.3114 31.8859C67.0277 31.6472 67.901 30.9871 67.901 29.7861H64.901C64.901 29.5933 64.9756 29.383 65.117 29.2214C65.2389 29.0821 65.3526 29.0433 65.3627 29.0399L66.3114 31.8859ZM67.901 29.7861C67.901 28.5851 67.0277 27.925 66.3114 27.6862L65.3627 30.5323C65.3526 30.5289 65.2389 30.49 65.117 30.3508C64.9756 30.1891 64.901 29.9788 64.901 29.7861H67.901ZM63.9888 30.7782C63.5848 29.5661 62.613 28.8437 61.7692 28.5062L60.655 31.2916C60.9393 31.4053 61.0955 31.5853 61.1427 31.7269L63.9888 30.7782ZM61.6865 31.3219C62.8986 30.9179 63.621 29.946 63.9585 29.1023L61.173 27.9881C61.0593 28.2724 60.8793 28.4287 60.7378 28.4759L61.6865 31.3219ZM61.1427 29.0195C61.5467 30.2317 62.5185 30.9541 63.3623 31.2916L64.4765 28.5062C64.1922 28.3925 64.036 28.2124 63.9888 28.0709L61.1427 29.0195ZM63.3623 28.5062C62.5185 28.8437 61.5467 29.5661 61.1427 30.7782L63.9888 31.7269C64.036 31.5853 64.1922 31.4053 64.4765 31.2916L63.3623 28.5062Z" fill="#E0B370" mask="url(#path-10-inside-1_6150_813)"/>
</svg>
