<svg width="80" height="81" viewBox="0 0 80 81" fill="none" xmlns="http://www.w3.org/2000/svg">
<path d="M74.6712 67.2132C73.6741 67.178 71.391 66.536 70.2357 64.2504C69.0804 61.9648 68.654 60.7585 68.5853 60.441C68.5165 61.4992 68.1108 63.9753 67.038 65.4144C65.9653 66.8535 63.5653 67.5659 62.4994 67.7423M63.425 67.5302C65.041 68.2356 68.5853 70.8956 68.5853 73.3505C68.8947 71.728 70.9661 67.7867 73.6068 67.0249" stroke="#E0B370" stroke-width="1.16071" stroke-linecap="round" stroke-linejoin="round"/>
<path d="M6.3766 11.6399C6.86006 11.6228 7.967 11.311 8.52714 10.2008C9.08728 9.09069 9.294 8.50477 9.32734 8.35059C9.36068 8.86455 9.5574 10.0672 10.0775 10.7662C10.5977 11.4652 11.7613 11.8113 12.2781 11.8969M11.8293 11.7939C11.0458 12.1365 9.32734 13.4285 9.32734 14.6209C9.1773 13.8328 8.17299 11.9185 6.89267 11.5484" stroke="#E0B370" stroke-width="1.16071" stroke-linecap="round" stroke-linejoin="round"/>
<path d="M12.5388 31.833C12.2092 33.218 11.7478 36.7595 12.5388 39.8459C13.5276 43.704 16.4632 44.3799 15.4744 47.6444C14.4857 50.9089 12.0482 54.1863 14.4986 54.829C15.1075 54.9887 15.4744 54.9524 16.3212 54.9524C16.79 55.1375 17.0189 55.4609 17.0189 56.1426C17.0189 57.2658 16.1422 57.797 17.0189 58.2548C17.46 58.4852 17.5667 58.6523 17.5567 58.8177M12.5388 31.833C13.0003 34.0094 15.8413 38.8369 23.5141 40.7362C26.9368 41.5835 28.5337 43.0859 29.1854 44.8298M12.5388 31.833C12.6407 29.4278 13.6367 25.7188 16.9982 22.6331M29.5456 63.0811C28.2602 63.1801 25.4454 66.9472 21.8332 65.863C19.8557 65.2695 20.1523 62.2842 19.9546 61.1961C19.7568 60.1079 17.8782 60.6025 17.4827 59.8111C17.2418 59.329 17.541 59.0755 17.5567 58.8177M16.9982 22.6331C16.3358 25.1972 15.1474 29.7838 20.6054 33.9481C27.4278 39.1534 29.0473 40.0202 29.1854 44.8298M16.9982 22.6331C18.447 21.3031 20.3353 20.0889 22.7807 19.1448M29.1854 44.8298C30.3599 47.9725 29.2076 52.348 28.911 55.7727C28.6143 59.1974 27.7658 63.894 35.2804 71.205C35.7736 71.6848 35.9269 71.8847 36.5028 71.7878C37.5756 71.6073 32.6744 64.1417 32.9713 60.4222M22.7807 19.1448C23.8402 18.7357 25.0043 18.3773 26.2826 18.0822C30.1492 17.1894 33.5628 16.8383 36.6233 16.9547M22.7807 19.1448C24.6539 20.3201 28.6294 23.7985 29.5456 28.3094M36.6233 16.9547C42.7197 17.1867 47.4146 19.2742 51.496 22.6331C57.6263 27.6782 63.3198 37.5093 60.5513 49.6771C58.2897 59.6168 51.1684 65.3511 44.6736 68.5948C43.2177 69.3219 42.0162 69.9766 40.6258 69.9766C38.16 69.9766 33.4261 64.8967 32.9713 60.4222M36.6233 16.9547C41.3694 18.1142 51.5536 23.3538 54.3221 35.0363M19.4071 46.4831C20.1108 46.7645 22.0498 46.5675 23.0596 45.2166M17.4827 43.1059C19.4071 41.4174 21.8332 40.2502 21.8332 40.2502M46.6605 35.0363C49.1892 39.8459 50.4255 44.6146 50.3131 54.1899M44.6736 41.6988C45.4363 44.2828 46.7329 51.6451 45.8177 60.4222M17.5567 58.8177C18.0798 58.7239 20.1716 58.4176 21.0707 57.7422M32.9713 60.4222C33.2682 56.7026 36.0376 52.2323 35.2804 49.6771" stroke="#E0B370" stroke-width="1.16071" stroke-linecap="round"/>
</svg>
