<svg width="80" height="81" viewBox="0 0 80 81" fill="none" xmlns="http://www.w3.org/2000/svg">
<path d="M9.28287 46.856C13.1048 47.5442 17.3791 48.9237 19.9258 50.3032C27.0587 54.1668 34.6164 64.8439 37.9143 66.3429C41.2121 67.8419 46.9085 62.2955 52.3051 59.2974C55.5978 57.4681 63.746 54.5226 69.4623 52.0614M9.28287 46.856C7.70564 46.572 5.06753 45.9761 3.43673 45.6561C0.348141 45.0502 0.258818 42.8976 4.93564 40.8596C10.7817 38.312 31.6183 29.9174 36.5651 30.9667C41.512 32.0161 58.6014 42.8067 64.2978 44.6068C69.9941 46.407 74.9406 46.4057 75.5402 48.3544C75.7739 49.1141 73.1145 50.4889 69.4623 52.0614M9.28287 46.856C13.2304 48.9045 22.3846 54.8902 27.4214 62.4454C33.7173 71.8894 38.0645 74.5876 41.8121 72.7888C45.5597 70.9899 57.8199 64.5994 62.9486 62.4454C70.4438 59.2974 79.5879 57.1988 78.6885 55.6997C77.7891 54.2007 71.9286 53.8196 69.4623 52.0614" stroke="#E0B370" stroke-width="1.5" stroke-linecap="round" stroke-linejoin="round"/>
<path d="M63.1516 26.9882C63.1516 35.0761 59.6646 40.4248 56.7393 43.4876C53.4189 46.9641 49.8689 48.5076 49.0799 48.5076C48.2909 48.5076 44.7407 46.9641 41.4202 43.4876C38.4949 40.4247 35.0078 35.0761 35.0078 26.9882V20.4566C35.0078 19.7126 35.4955 19.0585 36.2028 18.8276C40.3832 17.4629 44.3296 15.6593 48.1851 13.3518C48.7359 13.0221 49.4241 13.0219 49.9756 13.3505C53.7599 15.6049 57.8487 17.4727 61.9588 18.8256C62.6649 19.058 63.1516 19.7116 63.1516 20.4549V26.9882Z" fill="#FEFAF8" stroke="#E0B370" stroke-width="1.5" stroke-linecap="round" stroke-linejoin="round"/>
<path d="M60.9672 27.5527C60.9672 34.3854 58.0214 38.9039 55.55 41.4913C52.745 44.4282 49.746 45.7323 49.0794 45.7323C48.4129 45.7323 45.4137 44.4282 42.6086 41.4913C40.1373 38.9038 37.1914 34.3854 37.1914 27.5527V22.2293C37.1914 21.4853 37.6792 20.8317 38.3856 20.598C41.7984 19.4691 45.0278 17.9918 48.1837 16.1161C48.7356 15.7881 49.4235 15.7879 49.976 16.1146C53.077 17.9485 56.4156 19.475 59.7751 20.5959C60.4802 20.8312 60.9672 21.4843 60.9672 22.2276V27.5527Z" fill="#FEFAF8" stroke="#E0B370" stroke-width="1.5" stroke-linecap="round" stroke-linejoin="round"/>
<mask id="path-4-inside-1_6150_840" fill="white">
<path d="M58.3565 23.4686L57.1157 23.1302C56.6645 23.0174 56.2133 22.5662 56.1005 22.115L55.7621 20.8741C55.6493 20.5357 55.4237 20.3101 55.0853 20.3101C54.7469 20.3101 54.5213 20.5357 54.4085 20.8741L54.0701 22.115C53.9573 22.5662 53.506 23.0174 53.0548 23.1302L51.814 23.4686C51.4756 23.5814 51.25 23.807 51.25 24.1455C51.25 24.4839 51.4756 24.7095 51.814 24.8223L53.0548 25.1607C53.506 25.2735 53.9573 25.7247 54.0701 26.176L54.4085 27.4168C54.5213 27.7552 54.7469 27.9808 55.0853 27.9808C55.4237 27.9808 55.6493 27.7552 55.7621 27.4168L56.1005 26.176C56.2133 25.7247 56.6645 25.2735 57.1157 25.1607L58.3565 24.8223C58.695 24.7095 58.9206 24.4839 58.9206 24.1455C58.9206 23.807 58.695 23.5814 58.3565 23.4686ZM55.0853 25.6119C54.8597 24.9351 54.2957 24.4839 53.7316 24.2583C54.4085 24.0326 54.8597 23.4686 55.0853 22.9046C55.3109 23.5814 55.8749 24.0326 56.4389 24.2583C55.8749 24.4839 55.3109 24.9351 55.0853 25.6119Z"/>
</mask>
<path d="M58.3565 23.4686L57.1157 23.1302C56.6645 23.0174 56.2133 22.5662 56.1005 22.115L55.7621 20.8741C55.6493 20.5357 55.4237 20.3101 55.0853 20.3101C54.7469 20.3101 54.5213 20.5357 54.4085 20.8741L54.0701 22.115C53.9573 22.5662 53.506 23.0174 53.0548 23.1302L51.814 23.4686C51.4756 23.5814 51.25 23.807 51.25 24.1455C51.25 24.4839 51.4756 24.7095 51.814 24.8223L53.0548 25.1607C53.506 25.2735 53.9573 25.7247 54.0701 26.176L54.4085 27.4168C54.5213 27.7552 54.7469 27.9808 55.0853 27.9808C55.4237 27.9808 55.6493 27.7552 55.7621 27.4168L56.1005 26.176C56.2133 25.7247 56.6645 25.2735 57.1157 25.1607L58.3565 24.8223C58.695 24.7095 58.9206 24.4839 58.9206 24.1455C58.9206 23.807 58.695 23.5814 58.3565 23.4686ZM55.0853 25.6119C54.8597 24.9351 54.2957 24.4839 53.7316 24.2583C54.4085 24.0326 54.8597 23.4686 55.0853 22.9046C55.3109 23.5814 55.8749 24.0326 56.4389 24.2583C55.8749 24.4839 55.3109 24.9351 55.0853 25.6119Z" fill="#E0B370"/>
<path d="M58.3565 23.4686L57.1157 23.1302C56.6645 23.0174 56.2133 22.5662 56.1005 22.115L55.7621 20.8741C55.6493 20.5357 55.4237 20.3101 55.0853 20.3101C54.7469 20.3101 54.5213 20.5357 54.4085 20.8741L54.0701 22.115C53.9573 22.5662 53.506 23.0174 53.0548 23.1302L51.814 23.4686C51.4756 23.5814 51.25 23.807 51.25 24.1455C51.25 24.4839 51.4756 24.7095 51.814 24.8223L53.0548 25.1607C53.506 25.2735 53.9573 25.7247 54.0701 26.176L54.4085 27.4168C54.5213 27.7552 54.7469 27.9808 55.0853 27.9808C55.4237 27.9808 55.6493 27.7552 55.7621 27.4168L56.1005 26.176C56.2133 25.7247 56.6645 25.2735 57.1157 25.1607L58.3565 24.8223C58.695 24.7095 58.9206 24.4839 58.9206 24.1455C58.9206 23.807 58.695 23.5814 58.3565 23.4686ZM55.0853 25.6119C54.8597 24.9351 54.2957 24.4839 53.7316 24.2583C54.4085 24.0326 54.8597 23.4686 55.0853 22.9046C55.3109 23.5814 55.8749 24.0326 56.4389 24.2583C55.8749 24.4839 55.3109 24.9351 55.0853 25.6119Z" fill="#E0B370"/>
<path d="M58.3565 23.4686L58.8309 22.0456L58.7914 22.0324L58.7512 22.0215L58.3565 23.4686ZM57.1157 23.1302L57.5104 21.6831L57.495 21.6789L57.4795 21.675L57.1157 23.1302ZM56.1005 22.115L57.5557 21.7512L57.5518 21.7357L57.5477 21.7203L56.1005 22.115ZM55.7621 20.8741L57.2092 20.4794L57.1983 20.4393L57.1851 20.3998L55.7621 20.8741ZM54.4085 20.8741L52.9854 20.3998L52.9723 20.4393L52.9613 20.4794L54.4085 20.8741ZM54.0701 22.115L52.6229 21.7203L52.6187 21.7357L52.6148 21.7512L54.0701 22.115ZM53.0548 23.1302L52.691 21.675L52.6755 21.6789L52.6601 21.6831L53.0548 23.1302ZM51.814 23.4686L51.4193 22.0215L51.3792 22.0324L51.3397 22.0456L51.814 23.4686ZM51.814 24.8223L51.3397 26.2453L51.3792 26.2585L51.4193 26.2694L51.814 24.8223ZM53.0548 25.1607L52.6601 26.6078L52.6755 26.612L52.691 26.6159L53.0548 25.1607ZM54.0701 26.176L52.6148 26.5398L52.6187 26.5552L52.6229 26.5706L54.0701 26.176ZM54.4085 27.4168L52.9613 27.8115L52.9723 27.8517L52.9854 27.8911L54.4085 27.4168ZM55.7621 27.4168L57.1851 27.8911L57.1983 27.8517L57.2092 27.8115L55.7621 27.4168ZM56.1005 26.176L57.5477 26.5706L57.5518 26.5552L57.5557 26.5398L56.1005 26.176ZM57.1157 25.1607L57.4795 26.6159L57.495 26.612L57.5104 26.6078L57.1157 25.1607ZM58.3565 24.8223L58.7512 26.2694L58.7914 26.2585L58.8309 26.2453L58.3565 24.8223ZM55.0853 25.6119L53.6622 26.0863L55.0853 30.3555L56.5083 26.0863L55.0853 25.6119ZM53.7316 24.2583L53.2573 22.8352L49.3726 24.1302L53.1745 25.651L53.7316 24.2583ZM55.0853 22.9046L56.5083 22.4303L55.2134 18.5454L53.6926 22.3475L55.0853 22.9046ZM56.4389 24.2583L56.996 25.651L60.4777 24.2583L56.996 22.8655L56.4389 24.2583ZM58.7512 22.0215L57.5104 21.6831L56.721 24.5773L57.9619 24.9158L58.7512 22.0215ZM57.4795 21.675C57.5347 21.6888 57.5605 21.7049 57.5605 21.7049C57.5618 21.7057 57.5536 21.7006 57.5419 21.6888C57.5301 21.6771 57.525 21.6689 57.5258 21.6702C57.5258 21.6703 57.5419 21.696 57.5557 21.7512L54.6453 22.4787C54.7819 23.0253 55.0915 23.481 55.4205 23.8101C55.7496 24.1392 56.2054 24.4488 56.7519 24.5854L57.4795 21.675ZM57.5477 21.7203L57.2092 20.4794L54.3149 21.2688L54.6534 22.5096L57.5477 21.7203ZM57.1851 20.3998C56.9464 19.6835 56.2863 18.8101 55.0853 18.8101V21.8101C54.8925 21.8101 54.6822 21.7355 54.5205 21.594C54.3813 21.4722 54.3424 21.3585 54.3391 21.3484L57.1851 20.3998ZM55.0853 18.8101C53.8842 18.8101 53.2242 19.6835 52.9854 20.3998L55.8315 21.3484C55.8281 21.3585 55.7893 21.4722 55.65 21.594C55.4884 21.7355 55.278 21.8101 55.0853 21.8101V18.8101ZM52.9613 20.4794L52.6229 21.7203L55.5172 22.5096L55.8556 21.2688L52.9613 20.4794ZM52.6148 21.7512C52.6286 21.696 52.6447 21.6702 52.6448 21.6702C52.6456 21.6689 52.6404 21.6771 52.6287 21.6888C52.6169 21.7006 52.6087 21.7057 52.61 21.7049C52.6101 21.7049 52.6358 21.6888 52.691 21.675L53.4186 24.5854C53.9652 24.4488 54.421 24.1392 54.75 23.8101C55.0791 23.481 55.3886 23.0253 55.5253 22.4787L52.6148 21.7512ZM52.6601 21.6831L51.4193 22.0215L52.2087 24.9158L53.4495 24.5773L52.6601 21.6831ZM51.3397 22.0456C50.6234 22.2844 49.75 22.9445 49.75 24.1455H52.75C52.75 24.3382 52.6754 24.5485 52.534 24.7102C52.4122 24.8494 52.2985 24.8883 52.2884 24.8916L51.3397 22.0456ZM49.75 24.1455C49.75 25.3464 50.6234 26.0065 51.3397 26.2453L52.2884 23.3993C52.2985 23.4026 52.4122 23.4415 52.534 23.5807C52.6754 23.7424 52.75 23.9527 52.75 24.1455H49.75ZM51.4193 26.2694L52.6601 26.6078L53.4495 23.7136L52.2087 23.3751L51.4193 26.2694ZM52.691 26.6159C52.6358 26.6021 52.6101 26.586 52.61 26.586C52.6087 26.5852 52.6169 26.5903 52.6287 26.6021C52.6404 26.6138 52.6456 26.622 52.6448 26.6207C52.6447 26.6207 52.6286 26.5949 52.6148 26.5398L55.5253 25.8122C55.3886 25.2656 55.0791 24.8099 54.75 24.4808C54.421 24.1517 53.9652 23.8421 53.4186 23.7055L52.691 26.6159ZM52.6229 26.5706L52.9613 27.8115L55.8556 27.0222L55.5172 25.7813L52.6229 26.5706ZM52.9854 27.8911C53.2242 28.6074 53.8842 29.4808 55.0853 29.4808V26.4808C55.278 26.4808 55.4884 26.5554 55.65 26.6969C55.7893 26.8187 55.8281 26.9324 55.8315 26.9425L52.9854 27.8911ZM55.0853 29.4808C56.2863 29.4808 56.9464 28.6074 57.1851 27.8911L54.3391 26.9425C54.3424 26.9324 54.3813 26.8187 54.5205 26.6969C54.6822 26.5554 54.8925 26.4808 55.0853 26.4808V29.4808ZM57.2092 27.8115L57.5477 26.5706L54.6534 25.7813L54.3149 27.0222L57.2092 27.8115ZM57.5557 26.5398C57.5419 26.5949 57.5258 26.6207 57.5258 26.6207C57.525 26.622 57.5301 26.6138 57.5419 26.6021C57.5536 26.5903 57.5618 26.5852 57.5605 26.586C57.5605 26.586 57.5347 26.6021 57.4795 26.6159L56.7519 23.7055C56.2054 23.8421 55.7496 24.1517 55.4205 24.4808C55.0915 24.8099 54.7819 25.2656 54.6453 25.8122L57.5557 26.5398ZM57.5104 26.6078L58.7512 26.2694L57.9619 23.3751L56.721 23.7136L57.5104 26.6078ZM58.8309 26.2453C59.5472 26.0065 60.4206 25.3464 60.4206 24.1455H57.4206C57.4206 23.9527 57.4951 23.7424 57.6366 23.5807C57.7584 23.4415 57.8721 23.4026 57.8822 23.3993L58.8309 26.2453ZM60.4206 24.1455C60.4206 22.9445 59.5472 22.2844 58.8309 22.0456L57.8822 24.8916C57.8721 24.8883 57.7584 24.8494 57.6366 24.7102C57.4951 24.5485 57.4206 24.3382 57.4206 24.1455H60.4206ZM56.5083 25.1376C56.1043 23.9255 55.1325 23.2031 54.2887 22.8655L53.1745 25.651C53.4588 25.7647 53.6151 25.9447 53.6622 26.0863L56.5083 25.1376ZM54.206 25.6813C55.4181 25.2772 56.1405 24.3054 56.478 23.4617L53.6926 22.3475C53.5788 22.6318 53.3988 22.7881 53.2573 22.8352L54.206 25.6813ZM53.6622 23.3789C54.0663 24.591 55.038 25.3135 55.8818 25.651L56.996 22.8655C56.7117 22.7518 56.5555 22.5718 56.5083 22.4303L53.6622 23.3789ZM55.8818 22.8655C55.038 23.2031 54.0663 23.9255 53.6622 25.1376L56.5083 26.0863C56.5555 25.9447 56.7117 25.7647 56.996 25.651L55.8818 22.8655Z" fill="#E0B370" mask="url(#path-4-inside-1_6150_840)"/>
</svg>
