<svg width="80" height="81" viewBox="0 0 80 81" fill="none" xmlns="http://www.w3.org/2000/svg">
<path d="M60.5229 59.4648C57.2592 67.6427 49.2792 73.3506 39.9526 73.3506C34.8047 73.3506 30.067 71.548 26.3062 68.5676M57.9379 37.7981C51.524 24.3003 39.9526 8.35059 39.9526 8.35059C39.9526 8.35059 17.8071 39.2346 17.8071 51.2051C17.8071 56.1863 19.5239 60.8565 22.41 64.6121" stroke="#E0B370" stroke-width="1.16071" stroke-linejoin="round"/>
<path d="M71.2406 52.1297C70.8799 49.1746 68.2087 46.964 66.9039 46.0659C68.0092 44.1931 70.5959 38.8354 66.9576 34.6138C66.1468 33.4993 64.8794 32.8065 63.5035 32.7256C58.9442 32.7256 55.5362 41.9902 54.2467 46.089L53.4791 44.7457C53.2505 44.333 52.9134 43.9905 52.5043 43.7556L52.3968 39.6107C52.3968 39.1868 52.0531 38.8431 51.6292 38.8431C51.2053 38.8431 50.8617 39.1868 50.8617 39.6107L50.9615 43.3948C50.6073 43.4217 50.2625 43.521 49.9483 43.6865C49.6512 43.8535 49.3902 44.0778 49.1807 44.3466L46.0567 42.2742C45.6921 42.0326 45.2007 42.1322 44.9591 42.4967C44.7175 42.8613 44.8171 43.3528 45.1817 43.5944L48.605 45.8971C48.5774 46.3806 48.6865 46.862 48.9197 47.2864L49.6873 48.6373C46.4084 47.7402 43.037 47.2251 39.6398 47.1022C36.6233 47.1022 34.5892 47.7853 33.5914 49.1362C32.8238 50.1878 32.6856 51.5848 33.2076 53.2811C34.8655 58.6541 40.7681 59.2835 42.9404 59.3295C43.0094 60.7726 43.3932 63.8122 45.2431 65.7464C46.3587 66.8922 47.9046 67.5162 49.5031 67.4658C50.2802 67.4567 51.0534 67.3536 51.8058 67.1588C54.8761 66.3912 56.1886 63.3746 56.7029 61.2561C57.6391 62.3408 59.2774 62.4611 60.3621 61.525C61.141 60.8527 61.4489 59.7837 61.1471 58.7999C62.2227 59.1679 63.3494 59.3648 64.486 59.3833C66.0851 59.4516 67.6438 58.8702 68.8074 57.7714C70.6573 55.9983 71.4709 54.1024 71.2406 52.1297ZM51.4911 65.6697C50.8542 65.8354 50.1995 65.923 49.5414 65.9306C48.3599 65.981 47.2126 65.526 46.3867 64.6795C44.368 62.5994 44.4678 58.6157 44.4678 58.5389C44.4678 58.1151 44.1241 57.7714 43.7002 57.7714H43.2167C41.5741 57.7714 36.109 57.4106 34.689 52.8052C34.3205 51.6001 34.3666 50.6637 34.8425 50.0189C35.5256 49.0902 37.1913 48.6066 39.6628 48.6066C43.9766 48.6066 49.4263 50.088 50.7465 50.4641L55.5745 59.1914C55.4594 60.2583 54.7993 64.833 51.4911 65.6697ZM59.7655 59.8515C59.6079 60.4149 59.0234 60.7439 58.46 60.5862C58.1851 60.5093 57.9528 60.3246 57.8159 60.0741L57.0483 58.6771L51.9593 49.4663L50.3244 46.5188C50.0434 46.0055 50.2283 45.3618 50.7389 45.0758C50.8962 44.9888 51.0733 44.9438 51.2531 44.9453C51.6388 44.9443 51.9946 45.153 52.1819 45.4903L59.681 59.0455C59.8158 59.2921 59.8462 59.5824 59.7655 59.8515ZM67.7405 56.6738H67.7636C66.8971 57.4733 65.7485 57.8957 64.5705 57.8481C63.0268 57.7829 61.5145 57.3905 60.1339 56.6968L55.2829 47.9695C56.818 42.5428 60.2797 34.2607 63.5035 34.2607C64.4322 34.357 65.2729 34.853 65.8063 35.6193C69.4752 39.8717 65.4148 45.5977 65.2382 45.851C64.9904 46.1949 65.0682 46.6746 65.4121 46.9226C65.4327 46.9374 65.4541 46.9512 65.4762 46.964C65.4762 46.964 69.3601 49.2667 69.7209 52.337C69.882 53.7954 69.2219 55.2538 67.7405 56.6738Z" fill="#E0B370"/>
<path d="M30.4101 66.4771C29.3777 66.4406 27.0137 65.7759 25.8174 63.4092C24.6212 61.0426 24.1797 59.7935 24.1085 59.4648C24.0373 60.5605 23.6172 63.1244 22.5064 64.6145C21.3956 66.1046 18.9106 66.8423 17.8069 67.0249M18.7653 66.8053C20.4386 67.5357 24.1085 70.29 24.1085 72.8319C24.4289 71.1519 26.5738 67.0709 29.308 66.282" stroke="#E0B370" stroke-width="1.16071" stroke-linecap="round" stroke-linejoin="round"/>
</svg>
