<svg width="100" height="101" viewBox="0 0 100 101" fill="none" xmlns="http://www.w3.org/2000/svg">
<path d="M65.9727 85.7635C69.1088 84.8557 74.9851 80.8117 76.8668 72.3936M76.8668 72.3936L73.4005 74.8695M76.8668 72.3936L78.3523 76.2312" stroke="#E0B370" stroke-width="1.98074" stroke-linecap="round" stroke-linejoin="round"/>
<path d="M33.7852 86.1307C30.649 85.2229 24.7728 81.1789 22.8911 72.7607M22.8911 72.7607L26.3574 75.2367M22.8911 72.7607L21.4055 76.5984" stroke="#E0B370" stroke-width="1.98074" stroke-linecap="round" stroke-linejoin="round"/>
<path d="M48.2904 68.228C46.3442 67.8422 44.9694 69.6349 44.3516 70.6397C44.3516 72.8103 47.0133 74.9808 49.4489 74.9808C52.461 74.9808 55.7691 72.4364 53.7353 69.9162C51.3025 66.9016 51.1866 68.8021 48.2904 68.228Z" fill="#E0B370" fill-opacity="0.3"/>
<path d="M27.9135 56.4261C29.1114 62.6089 31.6338 69.6024 33.4546 73.1676C35.7306 77.624 46.6316 83.1642 49.267 83.1642C51.9024 83.1642 62.7738 76.5499 64.5999 73.1676C66.399 69.8355 68.7967 61.612 70.0777 54.9807M27.9135 56.4261C29.0909 48.4762 29.3814 44.9836 34.0533 39.6841C37.7907 35.4444 46.1521 33.9027 49.8656 33.6618M27.9135 56.4261C26.4463 55.262 23.8711 53.8962 23.8711 56.4261C23.871 60.1651 27.7374 67.7474 30.9718 67.2656M27.9135 56.4261C27.4484 55.4129 27.029 54.4228 26.6528 53.4553M70.829 50.1627C70.6784 51.5762 70.4173 53.2225 70.0777 54.9807M55.7354 21.3765L55.0766 24.8392M70.0777 54.9807C70.5945 53.7488 71.0403 52.5438 71.4211 51.3669M70.0777 54.9807C71.1668 54.2582 73.3689 53.2466 73.4647 54.9807C73.5845 57.1482 71.6679 64.3749 68.7929 65.218M71.4211 51.3669C76.6244 35.2832 69.6824 24.4285 65.9179 21.3765C63.0955 19.0883 58.8502 16.7994 55.7354 18.2449C51.9024 15.1132 42.9179 14.6317 35.4911 19.0883C31.1354 21.7021 18.3062 31.9958 26.6528 53.4553M71.4211 51.3669C70.0257 46.5892 63.6417 36.5761 53.1003 35.2274L54.4178 28.3019M55.0483 54.8809C55.8348 54.4734 57.347 53.4591 59.0496 53.4553C60.1995 53.4527 61.4362 54.1803 62.5951 54.8407M43.2447 54.8809C42.4524 54.4704 40.9238 53.4515 39.2059 53.4553C38.0667 53.4578 36.8442 54.1875 35.6979 54.8407M53.1003 48.4762C55.5358 47.5528 59.4964 46.0192 61.6047 46.3082C63.7131 46.5973 64.3599 47.2718 66.037 48.4762M45.9121 48.4762C43.4766 47.5528 39.516 46.0192 37.4077 46.3082C35.2994 46.5973 34.6525 47.2718 32.9754 48.4762M47.8288 63.1705C48.4675 63.5318 50.0803 64.0377 51.4225 63.1705M57.6879 54.5674C57.6054 55.1039 57.9602 56.1768 59.0496 56.1768C60.1391 56.1768 60.2463 55.2861 60.2876 54.8407M40.6051 54.5674C40.6876 55.1039 40.3328 56.1768 39.2434 56.1768C38.1539 56.1768 38.0466 55.2861 38.0054 54.8407M54.4178 28.3019C56.1268 28.2676 60.3619 29.016 63.6301 32.2842M54.4178 28.3019L55.0766 24.8392M55.0766 24.8392C58.1952 24.6492 65.3044 26.1478 68.7929 33.6618M26.6528 53.4553C26.3096 49.1287 26.9606 39.2581 32.3096 34.3887" stroke="#E0B370" stroke-width="1.98074" stroke-linecap="round"/>
<path d="M43.3984 70.6294C44.5668 71.3321 45.3225 71.332 46.9555 71.3321C48.5886 71.3321 48.6906 71.7871 49.3541 71.7871C50.0175 71.7871 50.6299 71.3321 51.4974 71.3321C52.365 71.3321 54.2229 71.3321 55.3097 70.3818" stroke="#E0B370" stroke-width="1.98074" stroke-linecap="round"/>
<rect x="0.782812" y="2.27012" width="26.5594" height="26.5594" rx="13.2797" stroke="#E0B370" stroke-width="1.56562"/>
<path d="M15.7757 9.6698V21.5498H13.8677V11.9198L11.4557 12.6938L10.9877 11.0198L15.1097 9.6698H15.7757Z" fill="#E0B370"/>
</svg>
