<svg width="80" height="81" viewBox="0 0 80 81" fill="none" xmlns="http://www.w3.org/2000/svg">
<path d="M18.554 17.466C14.742 16.8458 11.125 19.5816 10.4752 23.5763C10.0217 26.3641 10.9562 28.6043 13.3247 31.4645L19.7843 39.4905C20.0211 39.7846 20.4414 39.853 20.7592 39.6491L29.4296 34.0844C32.1226 32.0475 34.0809 30.8968 34.6325 27.5061C35.2824 23.5114 32.7191 19.7703 28.907 19.1501C27.1497 18.8643 25.4337 19.2917 24.0308 20.2269C23.6494 20.4811 23.1187 20.3947 22.8375 20.0327C21.8034 18.7011 20.3114 17.7518 18.554 17.466Z" stroke="#E0B370" stroke-width="1.25" stroke-linejoin="round"/>
<path d="M58.2847 69.7478C54.983 66.5532 51.1948 62.6519 48.3668 61.387C48.168 61.3037 44.0216 59.5668 42.1472 58.7817C37.9286 57.6154 35.5552 54.3178 33.0572 52.2699C30.5591 50.222 28.6702 48.0288 26.1875 45.546C23.6934 43.0518 21.4147 38.4135 23.0468 38.7103C26.0952 39.2645 26.5568 41.2044 29.1434 43.0519C31.4714 44.7146 33.6595 45.8342 35.377 46.7319C38.4663 48.3464 39.5971 47.0975 39.7763 46.2713C41.1682 42.9484 39.7809 37.7296 39.0593 34.5944C38.2069 30.8911 37.4871 27.9568 34.6477 22.8912C32.9337 19.8336 34.1232 16.8554 35.6455 17.4004C35.7523 17.4387 35.8429 17.0626 35.9588 17.1308C36.4085 17.3956 37.1409 19.1282 38.4528 20.9799C38.7487 21.3975 39.052 21.8624 39.3583 22.3608M47.9552 42.2861C47.9851 41.4974 45.7023 35.2326 45.0229 33.7463C44.5716 32.7588 41.8648 26.4388 39.3583 22.3608M67.8753 63.3496C62.686 57.2105 59.7649 53.5427 59.8466 51.674C59.9596 49.1484 56.3079 41.4579 54.0062 36.1078M41.3598 20.4948C39.4324 17.6844 37.5256 19.0893 39.3583 22.3608M41.3598 20.4948C44.2255 19.3916 45.8657 23.4264 47.5112 25.7759M41.3598 20.4948C42.0254 21.775 43.7189 24.1873 44.6599 26.4842M47.5112 25.7759C48.7353 27.5237 48.0393 26.7988 50.7638 30.4434C52.1158 32.2521 53.178 34.1827 54.0062 36.1078M47.5112 25.7759C47.7017 25.1212 48.3681 23.9914 49.5093 24.7098C50.9358 25.6079 53.4933 32.6882 54.0062 36.1078M47.6051 32.1245C48.6849 33.6451 50.8001 37.4889 50.623 40.6997" stroke="#E0B370" stroke-width="1.25" stroke-linecap="round" stroke-linejoin="round"/>
</svg>
