<svg width="80" height="81" viewBox="0 0 80 81" fill="none" xmlns="http://www.w3.org/2000/svg">
<path d="M38.4253 58.4676C36.8229 58.1499 35.6912 59.6258 35.1825 60.4531C35.1825 62.2401 37.3739 64.027 39.379 64.027C41.8588 64.027 44.5823 61.9322 42.9079 59.8574C40.905 57.3756 40.8096 58.9403 38.4253 58.4676Z" fill="#F5E5CF"/>
<path d="M55.3078 55.9959C57.6747 55.3018 59.2526 49.3522 59.154 47.5677C59.0751 46.1401 57.2621 46.9728 56.3655 47.5677C55.3109 53.0271 53.3369 59.7973 51.8558 62.5406C50.3524 65.3252 41.4023 70.7707 39.2326 70.7707C37.0629 70.7707 28.0885 66.2095 26.2147 62.5406C25.8649 61.8558 25.4838 61.0174 25.0923 60.0697C23.806 56.9552 22.4089 52.6603 21.6528 48.7577C20.4449 47.7993 18.3249 46.6749 18.3248 48.7577C18.3248 51.1357 20.2245 55.4021 22.3164 57.0371C22.9323 57.5185 23.5649 57.7718 24.1706 57.6816M43.9922 47.4855C44.6397 47.15 45.8846 46.315 47.2864 46.3119C48.233 46.3097 49.2512 46.9087 50.2053 47.4525M34.2746 47.4855C33.6223 47.1476 32.3639 46.3087 30.9496 46.3119C30.0117 46.3139 29.0052 46.9146 28.0615 47.4525M42.3885 42.2127C44.3936 41.4525 47.6542 40.1899 49.39 40.4279C51.1257 40.6658 51.6582 41.2211 53.0389 42.2127M36.4707 42.2127C34.4656 41.4525 31.2049 40.1899 29.4692 40.4279C27.7334 40.6658 27.2009 41.2211 25.8202 42.2127M38.0486 54.3102C38.5744 54.6076 39.9022 55.0241 41.0072 54.3102M46.1653 47.2274C46.0974 47.6691 46.3895 48.5524 47.2864 48.5524C48.1833 48.5524 48.2716 47.8191 48.3056 47.4525M32.1015 47.2274C32.1695 47.6691 31.8773 48.5524 30.9804 48.5524C30.0835 48.5524 29.9952 47.8191 29.9612 47.4525M47.796 17.1101C45.1649 16.3215 41.9514 16.0735 38.0486 16.5501C34.4097 16.5501 31.4294 17.1842 29.0038 18.2824M47.796 17.1101C49.7664 15.2589 52.6269 10.5576 48.3056 6.56244C42.9039 1.56843 35.9014 2.68954 33.4255 3.81064C31.3018 4.77223 30.1522 6.78353 30.5949 9.0085M47.796 17.1101C56.0413 19.5816 58.5657 27.3638 58.6526 34.8028M36.4707 14.0025C34.0405 13.7987 32.1015 12.7795 30.9496 10.1296C30.7857 9.75256 30.6684 9.37759 30.5949 9.0085M30.5949 9.0085C28.5907 10.0612 25.4664 13.3898 29.0038 18.2824M29.0038 18.2824C23.6636 20.7002 21.0117 25.3673 19.9392 30.4692" stroke="#E0B370" stroke-width="1.1875" stroke-linecap="round"/>
<path d="M21.5734 45.6072C23.0986 45.6072 25.09 36.9575 26.5099 33.515M21.5734 45.6072L21.9901 38.7385M21.5734 45.6072C21.5734 46.83 21.9065 47.9307 21.5734 48.5632C21.2053 48.3953 18.8661 46.7328 18.9923 42.098C19.1501 36.3045 17.4145 34.2894 18.9923 31.6865C20.5701 29.0837 31.2088 20.5193 38.7745 22.3665M57.3539 43.4289C55.8287 40.13 54.4605 36.8201 50.9684 33.7974C49.3417 32.3894 44.9277 32.0914 41.848 31.3561M34.5112 26.3743C31.9441 27.9141 27.6459 30.7609 26.5099 33.515M34.5112 26.3743C36.0963 25.242 36.5646 24.9434 37.5048 23.8335M34.5112 26.3743C35.1887 26.8216 36.3211 28.2933 37.2722 29.2275M55.6491 35.8007C56.3328 37.6479 57.5266 40.0147 58.2839 41.0222C58.4139 41.1952 56.2336 47.6359 56.2997 47.9048C60.0566 40.8998 58.8812 36.3207 58.2839 32.7781C57.8626 30.2789 52.0728 24.4656 46.761 22.3665C41.4492 20.2675 40.3973 20.8552 39.5033 21.6109C39.355 21.7362 39.1011 22.0024 38.7745 22.3665M26.5099 33.515C26.9482 33.7389 29.4141 32.1746 31.9441 32.3977C34.5112 32.6242 40.6559 32.6116 41.848 31.3561M38.7745 22.3665C38.4222 22.7594 37.9852 23.2664 37.5048 23.8335M37.5048 23.8335C39.8013 23.8763 44.9518 24.4153 47.1817 26.2289M41.848 31.3561C40.6585 31.0721 38.4157 30.3507 37.2722 29.2275M37.2722 29.2275C36.7701 29.5913 35.1369 31.1174 34.1692 31.1174" stroke="#E0B370" stroke-width="1.1875" stroke-linecap="round" stroke-linejoin="round"/>
<path d="M34.4001 60.4526C35.362 61.0311 35.9842 61.0311 37.3286 61.0311C38.6731 61.0311 38.7571 61.4057 39.3033 61.4057C39.8494 61.4057 40.3536 61.0311 41.0678 61.0311C41.782 61.0311 43.3116 61.0311 44.2064 60.2488" stroke="#E0B370" stroke-width="1.1875" stroke-linecap="round"/>
<path d="M44.9489 55.1185C43.5987 56.0829 46.1063 60.1338 47.0707 60.9054C48.8068 60.9054 51.2758 60.6738 51.8931 59.7479C52.6646 58.5906 52.5916 50.526 49.5783 52.0323C48.421 52.6108 48.8068 54.7328 47.6494 55.3114C46.492 55.8901 46.0916 54.3023 44.9489 55.1185Z" stroke="#E0B370" stroke-width="1.1875" stroke-linecap="round"/>
<path d="M46.58 72.0009C46.3886 73.8905 47.1382 77.3547 47.5369 78.8506L60.2162 78.3782C61.6515 76.2524 59.8378 66.0273 59.4985 65.8598C59.02 65.6236 58.5415 65.6236 58.0631 66.8046C57.9772 67.0165 57.9138 67.4225 57.8681 67.9507C57.1504 62.7544 54.9531 56.6482 53.2785 56.6482C52.4894 56.6482 52.298 57.3567 52.2862 57.8291C51.7155 56.6625 51.0615 55.7034 50.6469 55.7034C49.9293 55.7034 49.69 56.6482 49.69 57.8291C49.69 58.7739 50.328 61.1876 50.6469 62.2763C50.0119 60.0942 49.3188 58.4726 48.9723 58.3015C48.4939 58.0653 47.5369 58.3015 47.5369 59.4825C47.5369 60.156 47.7704 61.1369 48.0154 62.0746C46.8193 61.8445 46.1016 63.2617 46.1016 63.9702C46.1016 64.6788 46.8193 69.6389 46.58 72.0009Z" fill="#FEFAF8"/>
<path d="M47.5371 78.8506C47.1383 77.3546 46.3888 73.8904 46.5801 72.0009C46.8194 69.6389 46.1017 64.6788 46.1017 63.9702C46.1017 63.2616 46.8194 61.8444 48.0155 62.0746M49.2117 70.8198C49.0522 68.9303 48.6854 64.915 48.494 63.9702C48.2548 62.7892 47.5371 60.6634 47.5371 59.4824C47.5371 58.3015 48.494 58.0653 48.9725 58.3015C49.3189 58.4725 50.012 60.0942 50.6471 62.2763M52.5609 71.0561C52.4238 69.0249 51.5003 65.2082 50.6471 62.2763M50.6471 62.2763C50.3281 61.1876 49.6901 58.7739 49.6901 57.8291C49.6901 56.6481 50.0134 55.8962 50.7311 55.8962C51.1457 55.8962 51.7156 56.6625 52.2863 57.8291M54.9532 69.1665C54.9532 69.1665 54.3906 64.3435 53.5178 61.372C53.1052 59.9671 52.7037 58.6822 52.2863 57.8291M52.2863 57.8291C52.2981 57.3567 52.4895 56.6481 53.2786 56.6481C54.9532 56.6481 57.1399 62.8829 57.8576 68.0792M57.824 74.8352C57.7442 72.552 57.6804 67.7493 58.0632 66.8046C58.5417 65.6236 59.0201 65.6236 59.4986 65.8598C59.838 66.0273 61.6517 76.2524 60.2163 78.3781" stroke="#E0B370" stroke-width="1.1875" stroke-linecap="round" stroke-linejoin="round"/>
</svg>
