<svg width="80" height="83" viewBox="0 0 80 83" fill="none" xmlns="http://www.w3.org/2000/svg">
<path d="M17.9682 75.4115C22.5969 79.0797 28.4279 81.2983 34.7638 81.2983C46.2427 81.2983 56.0642 74.2732 60.0811 64.2081C60.7461 62.5062 62.3702 57.5142 62.3702 52.5737M13.1729 70.5433C9.62081 65.921 7.50781 60.173 7.50781 54.0424C7.50781 39.3094 34.7638 1.29834 34.7638 1.29834C34.7638 1.29834 49.0055 20.9288 56.8996 37.5414L58.0178 40.1047" stroke="#E0B370" stroke-width="1.5" stroke-linejoin="round"/>
<path d="M23.0195 72.8429C21.7488 72.7979 18.8392 71.9798 17.3669 69.067C15.8947 66.1543 15.3513 64.617 15.2637 64.2124C15.176 65.5609 14.659 68.7164 13.2918 70.5504C11.9247 72.3844 8.86618 73.2924 7.50781 73.5171M8.68742 73.2468C10.7469 74.1458 15.2637 77.5357 15.2637 80.6642C15.658 78.5965 18.2978 73.5737 21.6631 72.6028" stroke="#E0B370" stroke-width="1.5" stroke-linecap="round" stroke-linejoin="round"/>
<path d="M72.7191 45.4471C70.6474 45.3738 65.9038 44.04 63.5035 39.2912C61.1031 34.5424 60.2173 32.036 60.0744 31.3765C59.9315 33.575 59.0885 38.7196 56.8596 41.7096C54.6307 44.6996 49.6443 46.1799 47.4297 46.5464M49.3529 46.1056C52.7105 47.5713 60.0744 53.098 60.0744 58.1986C60.7174 54.8275 65.0211 46.6387 70.5076 45.0557" stroke="#E0B370" stroke-width="1.5" stroke-linecap="round" stroke-linejoin="round"/>
</svg>
