<svg width="100" height="101" viewBox="0 0 100 101" fill="none" xmlns="http://www.w3.org/2000/svg">
<path d="M49.2203 69.6899C47.2489 69.299 45.8563 71.115 45.2305 72.1329C45.2305 74.3316 47.9267 76.5303 50.3938 76.5303C53.4448 76.5303 56.7958 73.9528 54.7357 71.4C52.2714 68.3463 52.154 70.2715 49.2203 69.6899Z" fill="#E0B370" fill-opacity="0.3"/>
<path d="M28.5869 57.7342C29.8003 63.9973 32.3553 71.0816 34.1997 74.693C36.5052 79.2072 47.5473 84.8193 50.2168 84.8193C52.8863 84.8193 63.8984 78.1192 65.7482 74.693C67.5705 71.3176 69.9994 62.9875 71.2969 56.2701M28.5869 57.7342C31.0137 51.2679 30.0738 46.1433 34.8061 40.775C38.592 36.4803 47.0616 34.9186 50.8232 34.6746M28.5869 57.7342C17.6661 33.9429 31.6516 22.679 36.2626 19.9119C43.7855 15.3975 52.8863 15.8852 56.7689 19.0576C59.9241 17.5933 64.2243 19.9119 67.0833 22.2299C70.8965 25.3215 77.9284 36.317 72.6576 52.6094M28.5869 57.7342C27.1007 56.555 24.4922 55.1716 24.4922 57.7342C24.4921 61.5218 28.4085 69.2024 31.6848 68.7144M72.0579 51.3896C71.9054 52.8214 71.6409 54.4891 71.2969 56.2701M56.7689 22.2299L54.0997 36.2604C64.7775 37.6267 71.2442 47.7697 72.6576 52.6094M71.2969 56.2701C71.8204 55.0222 72.2719 53.8016 72.6576 52.6094M71.2969 56.2701C72.4001 55.5382 74.6307 54.5135 74.7278 56.2701C74.8491 58.4658 72.9076 65.7862 69.9954 66.6403M55.0698 56.731C56.4045 57.4225 59.8021 57.9297 62.7143 56.2701M45.1198 56.731C43.785 57.4225 40.3874 57.9297 37.4752 56.2701M54.0997 49.6812C56.5668 48.7458 60.5787 47.1923 62.7143 47.4851C64.8499 47.7779 65.5051 48.4612 67.2039 49.6812M46.8185 49.6812C44.3515 48.7458 40.3396 47.1923 38.204 47.4851C36.0684 47.7779 35.4131 48.4612 33.7144 49.6812M48.76 64.5661C49.4069 64.9321 51.0407 65.4446 52.4002 64.5661" stroke="#E0B370" stroke-width="2.00641" stroke-linecap="round"/>
<path d="M44.7812 72.3818C45.66 72.8428 46.2286 72.8428 47.8828 72.8428C49.537 72.8428 49.6404 73.3037 50.3124 73.3037C50.9844 73.3037 51.6047 72.8428 52.4835 72.8428C53.3622 72.8428 54.8613 72.6452 55.8435 72.3818" stroke="#E0B370" stroke-width="2.00641" stroke-linecap="round"/>
<path d="M36.4177 60.7111C37.5486 59.198 39.4336 60.7111 41.3185 60.1058C43.6855 59.3458 45.4654 61.0064 45.4654 62.8295C45.4654 64.04 43.2035 64.3426 40.1876 64.9479C37.1717 65.5532 35.2867 62.2242 36.4177 60.7111Z" fill="#E0B370" fill-opacity="0.3"/>
<path d="M64.1018 60.7111C62.9709 59.198 61.0859 60.7111 59.201 60.1058C56.834 59.3458 55.0542 61.0064 55.0542 62.8295C55.0542 64.04 57.3161 64.3426 60.332 64.9479C63.3479 65.5532 65.2328 62.2242 64.1018 60.7111Z" fill="#E0B370" fill-opacity="0.3"/>
<path d="M73.683 95.0216L73.683 95.0216C75.0129 96.4107 76.3914 97.4168 77.5273 98.0803C78.095 98.4119 78.6111 98.6632 79.04 98.8349C79.4195 98.987 79.8602 99.1312 80.223 99.1312C80.5859 99.1312 81.0266 98.987 81.4061 98.8349C81.8349 98.6631 82.3511 98.4119 82.9187 98.0803C84.0546 97.4168 85.433 96.4107 86.7629 95.0216C89.1142 92.5658 91.9061 88.2812 91.9061 81.8417V76.5944C91.9061 75.7642 91.3637 75.0451 90.5899 74.7972C87.3705 73.7657 84.1573 72.304 81.2028 70.525C80.5999 70.162 79.845 70.1623 79.2422 70.5265C76.2252 72.3499 73.1405 73.7536 69.859 74.7975C69.0833 75.0442 68.5397 75.7644 68.5397 76.5954V81.8417C68.5397 88.2812 71.3317 92.5658 73.683 95.0216Z" fill="#FEFAF8" stroke="#FEFAF8" stroke-width="2.02994" stroke-linecap="round" stroke-linejoin="round"/>
<path d="M90.8911 81.8417C90.8911 87.9584 88.2476 92.0034 86.0298 94.3197C83.5126 96.9489 80.8212 98.1162 80.223 98.1162C79.6249 98.1162 76.9334 96.9489 74.4161 94.3197C72.1983 92.0033 69.5547 87.9584 69.5547 81.8417V76.5954C69.5547 76.2149 69.8041 75.88 70.1667 75.7647C73.5259 74.6961 76.6834 73.2589 79.7672 71.3952C80.0474 71.2258 80.3988 71.2257 80.6793 71.3946C83.6999 73.2133 86.9847 74.7078 90.2802 75.7637C90.6423 75.8797 90.8911 76.2143 90.8911 76.5944V81.8417Z" fill="#FEFAF8" stroke="#E0B370" stroke-width="1.35329" stroke-linecap="round" stroke-linejoin="round"/>
<path fill-rule="evenodd" clip-rule="evenodd" d="M82.4314 78.1226C82.4314 78.0479 82.3708 77.9873 82.2961 77.9873H78.4712C78.3965 77.9873 78.3359 78.0479 78.3359 78.1226V82.5512C78.3359 82.6259 78.2753 82.6865 78.2006 82.6865H73.7586C73.6839 82.6865 73.6233 82.7471 73.6233 82.8219V86.6367C73.6233 86.7115 73.6839 86.772 73.7586 86.772H78.2006C78.2753 86.772 78.3359 86.8326 78.3359 86.9074V91.352C78.3359 91.4267 78.3965 91.4873 78.4712 91.4873H82.2961C82.3708 91.4873 82.4314 91.4267 82.4314 91.352V86.9074C82.4314 86.8326 82.492 86.772 82.5667 86.772H87.0209C87.0956 86.772 87.1562 86.7115 87.1562 86.6367V82.8219C87.1562 82.7471 87.0956 82.6865 87.0209 82.6865H82.5667C82.492 82.6865 82.4314 82.6259 82.4314 82.5512V78.1226Z" fill="#FEFAF8"/>
<path d="M78.4712 78.664H82.2961V77.3107H78.4712V78.664ZM79.0126 82.5512V78.1226H77.6593V82.5512H79.0126ZM73.7586 83.3632H78.2006V82.0099H73.7586V83.3632ZM74.2999 86.6367V82.8219H72.9466V86.6367H74.2999ZM78.2006 86.0954H73.7586V87.4487H78.2006V86.0954ZM79.0126 91.352V86.9074H77.6593V91.352H79.0126ZM82.2961 90.8107H78.4712V92.164H82.2961V90.8107ZM81.7548 86.9074V91.352H83.1081V86.9074H81.7548ZM87.0209 86.0954H82.5667V87.4487H87.0209V86.0954ZM86.4796 82.8219V86.6367H87.8329V82.8219H86.4796ZM82.5667 83.3632H87.0209V82.0099H82.5667V83.3632ZM81.7548 78.1226V82.5512H83.1081V78.1226H81.7548ZM82.5667 82.0099C82.8657 82.0099 83.1081 82.2522 83.1081 82.5512H81.7548C81.7548 82.9996 82.1183 83.3632 82.5667 83.3632V82.0099ZM87.8329 82.8219C87.8329 82.3734 87.4693 82.0099 87.0209 82.0099V83.3632C86.7219 83.3632 86.4796 83.1208 86.4796 82.8219H87.8329ZM87.0209 87.4487C87.4693 87.4487 87.8329 87.0852 87.8329 86.6367H86.4796C86.4796 86.3378 86.7219 86.0954 87.0209 86.0954V87.4487ZM83.1081 86.9074C83.1081 87.2063 82.8657 87.4487 82.5667 87.4487V86.0954C82.1183 86.0954 81.7548 86.4589 81.7548 86.9074H83.1081ZM82.2961 92.164C82.7445 92.164 83.1081 91.8004 83.1081 91.352H81.7548C81.7548 91.053 81.9971 90.8107 82.2961 90.8107V92.164ZM77.6593 91.352C77.6593 91.8004 78.0228 92.164 78.4712 92.164V90.8107C78.7702 90.8107 79.0126 91.053 79.0126 91.352H77.6593ZM78.2006 87.4487C77.9016 87.4487 77.6593 87.2063 77.6593 86.9074H79.0126C79.0126 86.4589 78.649 86.0954 78.2006 86.0954V87.4487ZM72.9466 86.6367C72.9466 87.0852 73.3102 87.4487 73.7586 87.4487V86.0954C74.0576 86.0954 74.2999 86.3378 74.2999 86.6367H72.9466ZM73.7586 82.0099C73.3102 82.0099 72.9466 82.3734 72.9466 82.8219H74.2999C74.2999 83.1208 74.0576 83.3632 73.7586 83.3632V82.0099ZM77.6593 82.5512C77.6593 82.2522 77.9016 82.0099 78.2006 82.0099V83.3632C78.649 83.3632 79.0126 82.9996 79.0126 82.5512H77.6593ZM82.2961 78.664C81.9971 78.664 81.7548 78.4216 81.7548 78.1226H83.1081C83.1081 77.6742 82.7445 77.3107 82.2961 77.3107V78.664ZM78.4712 77.3107C78.0228 77.3107 77.6593 77.6742 77.6593 78.1226H79.0126C79.0126 78.4216 78.7702 78.664 78.4712 78.664V77.3107Z" fill="#E0B370"/>
<rect x="1.09531" y="2.27012" width="26.5594" height="26.5594" rx="13.2797" fill="#FEFAF8"/>
<rect x="1.09531" y="2.27012" width="26.5594" height="26.5594" rx="13.2797" stroke="#E0B370" stroke-width="1.56562"/>
<path d="M18.5666 19.8938V21.5498H10.0526V21.1178L14.2826 16.5638C14.9426 15.8678 15.4226 15.2798 15.7226 14.7998C16.0226 14.3078 16.1726 13.8098 16.1726 13.3058C16.1726 12.7058 15.9926 12.2078 15.6326 11.8118C15.2726 11.4158 14.7926 11.2178 14.1926 11.2178C13.5926 11.2178 13.1066 11.4278 12.7346 11.8478C12.3626 12.2558 12.1766 12.7658 12.1766 13.3778C12.1766 13.6298 12.2066 13.9358 12.2666 14.2958H10.3406C10.2566 13.9718 10.2146 13.6298 10.2146 13.2698C10.2146 12.6218 10.3766 12.0098 10.7006 11.4338C11.0246 10.8458 11.4866 10.3718 12.0866 10.0118C12.6986 9.6518 13.4066 9.4718 14.2106 9.4718C14.9666 9.4718 15.6386 9.6338 16.2266 9.9578C16.8266 10.2818 17.2946 10.7258 17.6306 11.2898C17.9786 11.8418 18.1526 12.4658 18.1526 13.1618C18.1526 13.9658 17.9366 14.7038 17.5046 15.3758C17.0846 16.0358 16.4606 16.8038 15.6326 17.6798L13.5446 19.8938H18.5666Z" fill="#E0B370"/>
</svg>
