<svg width="34" height="35" viewBox="0 0 34 35" fill="none" xmlns="http://www.w3.org/2000/svg">
<path d="M24.9144 22.3079H23.3482L22.7931 21.7726C25.1721 18.9971 26.4013 15.2104 25.7272 11.1859C24.7954 5.6744 20.1959 1.27315 14.6448 0.599086C6.25864 -0.431836 -0.799207 6.62601 0.231715 15.0122C0.90578 20.5633 5.30702 25.1628 10.8185 26.0946C14.8431 26.7686 18.6297 25.5395 21.4053 23.1604L21.9406 23.7155V25.2817L30.3664 33.7075C31.1792 34.5204 32.5075 34.5204 33.3204 33.7075C34.1332 32.8947 34.1332 31.5664 33.3204 30.7536L24.9144 22.3079ZM13.0191 22.3079C8.08258 22.3079 4.09767 18.323 4.09767 13.3865C4.09767 8.44995 8.08258 4.46504 13.0191 4.46504C17.9556 4.46504 21.9406 8.44995 21.9406 13.3865C21.9406 18.323 17.9556 22.3079 13.0191 22.3079Z" fill="#9F988B"/>
<path d="M14.2912 8.22137H12.3603V12.0831H8.49854V14.014H12.3603V17.8758H14.2912V14.014H18.1529V12.0831H14.2912V8.22137Z" fill="#9F988B"/>
</svg>
